<svg width="25" height="24" viewBox="0 0 25 24" fill="none" xmlns="http://www.w3.org/2000/svg">
<path d="M21.5 7.99998C22.0333 7.99998 22.5 8.19998 22.9 8.59998C23.3 8.99998 23.5 9.46664 23.5 9.99998V12C23.5 12.1166 23.4833 12.2416 23.45 12.375C23.4167 12.5083 23.3833 12.6333 23.35 12.75L20.35 19.8C20.2 20.1333 19.95 20.4166 19.6 20.65C19.25 20.8833 18.8833 21 18.5 21H7.5V7.99998L13.5 2.04998C13.75 1.79998 14.0458 1.65414 14.3875 1.61248C14.7292 1.57081 15.0583 1.63331 15.375 1.79998C15.6917 1.96664 15.925 2.19998 16.075 2.49998C16.225 2.79998 16.2583 3.10831 16.175 3.42498L15.05 7.99998H21.5ZM9.5 8.84998V19H18.5L21.5 12V9.99998H12.5L13.85 4.49998L9.5 8.84998ZM4.5 21C3.95 21 3.47917 20.8041 3.0875 20.4125C2.69583 20.0208 2.5 19.55 2.5 19V9.99998C2.5 9.44998 2.69583 8.97914 3.0875 8.58748C3.47917 8.19581 3.95 7.99998 4.5 7.99998H7.5V9.99998H4.5V19H7.5V21H4.5Z" fill="#00797A"/>
</svg>
