<svg width="25" height="24" viewBox="0 0 25 24" fill="none" xmlns="http://www.w3.org/2000/svg">
<path d="M4.5 19H8.5V11H4.5V19ZM10.5 19H14.5V5H10.5V19ZM16.5 19H20.5V13H16.5V19ZM2.5 19V11C2.5 10.45 2.69583 9.97917 3.0875 9.5875C3.47917 9.19583 3.95 9 4.5 9H8.5V5C8.5 4.45 8.69583 3.97917 9.0875 3.5875C9.47917 3.19583 9.95 3 10.5 3H14.5C15.05 3 15.5208 3.19583 15.9125 3.5875C16.3042 3.97917 16.5 4.45 16.5 5V11H20.5C21.05 11 21.5208 11.1958 21.9125 11.5875C22.3042 11.9792 22.5 12.45 22.5 13V19C22.5 19.55 22.3042 20.0208 21.9125 20.4125C21.5208 20.8042 21.05 21 20.5 21H4.5C3.95 21 3.47917 20.8042 3.0875 20.4125C2.69583 20.0208 2.5 19.55 2.5 19Z" fill="#00797A"/>
</svg>
