<svg width="25" height="24" viewBox="0 0 25 24" fill="none" xmlns="http://www.w3.org/2000/svg">
<path d="M4.375 21C3.825 21 3.35417 20.8042 2.9625 20.4125C2.57083 20.0208 2.375 19.55 2.375 19V5C2.375 4.45 2.57083 3.97917 2.9625 3.5875C3.35417 3.19583 3.825 3 4.375 3H20.375C20.925 3 21.3958 3.19583 21.7875 3.5875C22.1792 3.97917 22.375 4.45 22.375 5V19C22.375 19.55 22.1792 20.0208 21.7875 20.4125C21.3958 20.8042 20.925 21 20.375 21H4.375ZM4.375 19H20.375V5H4.375V19ZM9.375 17C9.65833 17 9.89583 16.9042 10.0875 16.7125C10.2792 16.5208 10.375 16.2833 10.375 16C10.375 15.7167 10.2792 15.4792 10.0875 15.2875C9.89583 15.0958 9.65833 15 9.375 15H6.375C6.09167 15 5.85417 15.0958 5.6625 15.2875C5.47083 15.4792 5.375 15.7167 5.375 16C5.375 16.2833 5.47083 16.5208 5.6625 16.7125C5.85417 16.9042 6.09167 17 6.375 17H9.375ZM14.925 12.175L14.2 11.45C14 11.25 13.7667 11.1542 13.5 11.1625C13.2333 11.1708 13 11.275 12.8 11.475C12.6167 11.675 12.5208 11.9083 12.5125 12.175C12.5042 12.4417 12.6 12.675 12.8 12.875L14.225 14.3C14.425 14.5 14.6583 14.6 14.925 14.6C15.1917 14.6 15.425 14.5 15.625 14.3L19.175 10.75C19.375 10.55 19.475 10.3167 19.475 10.05C19.475 9.78333 19.375 9.55 19.175 9.35C18.975 9.15 18.7375 9.05 18.4625 9.05C18.1875 9.05 17.95 9.15 17.75 9.35L14.925 12.175ZM9.375 13C9.65833 13 9.89583 12.9042 10.0875 12.7125C10.2792 12.5208 10.375 12.2833 10.375 12C10.375 11.7167 10.2792 11.4792 10.0875 11.2875C9.89583 11.0958 9.65833 11 9.375 11H6.375C6.09167 11 5.85417 11.0958 5.6625 11.2875C5.47083 11.4792 5.375 11.7167 5.375 12C5.375 12.2833 5.47083 12.5208 5.6625 12.7125C5.85417 12.9042 6.09167 13 6.375 13H9.375ZM9.375 9C9.65833 9 9.89583 8.90417 10.0875 8.7125C10.2792 8.52083 10.375 8.28333 10.375 8C10.375 7.71667 10.2792 7.47917 10.0875 7.2875C9.89583 7.09583 9.65833 7 9.375 7H6.375C6.09167 7 5.85417 7.09583 5.6625 7.2875C5.47083 7.47917 5.375 7.71667 5.375 8C5.375 8.28333 5.47083 8.52083 5.6625 8.7125C5.85417 8.90417 6.09167 9 6.375 9H9.375Z" fill="#00797A"/>
</svg>
