<svg width="31" height="24" viewBox="0 0 31 24" fill="none" xmlns="http://www.w3.org/2000/svg">
<path d="M14.4686 24C21.096 24 26.4686 18.6274 26.4686 12C26.4686 5.37258 21.096 0 14.4686 0C7.84118 0 2.4686 5.37258 2.4686 12C2.4686 18.6274 7.84118 24 14.4686 24Z" fill="#0B3D91"/>
<path d="M13.76 2.43947C13.8343 2.43947 13.8945 2.37924 13.8945 2.30494C13.8945 2.23064 13.8343 2.17041 13.76 2.17041C13.6857 2.17041 13.6255 2.23064 13.6255 2.30494C13.6255 2.37924 13.6857 2.43947 13.76 2.43947Z" fill="white"/>
<path d="M15.1412 2.61885C15.2155 2.61885 15.2758 2.55862 15.2758 2.48432C15.2758 2.41002 15.2155 2.34979 15.1412 2.34979C15.0669 2.34979 15.0067 2.41002 15.0067 2.48432C15.0067 2.55862 15.0669 2.61885 15.1412 2.61885Z" fill="white"/>
<path d="M16.9529 5.0583C17.0272 5.0583 17.0874 4.99807 17.0874 4.92377C17.0874 4.84948 17.0272 4.78925 16.9529 4.78925C16.8786 4.78925 16.8184 4.84948 16.8184 4.92377C16.8184 4.99807 16.8786 5.0583 16.9529 5.0583Z" fill="white"/>
<path d="M7.01575 17.6143C7.09005 17.6143 7.15028 17.5541 7.15028 17.4798C7.15028 17.4055 7.09005 17.3453 7.01575 17.3453C6.94146 17.3453 6.88123 17.4055 6.88123 17.4798C6.88123 17.5541 6.94146 17.6143 7.01575 17.6143Z" fill="white"/>
<path d="M7.36552 18.6906C7.43981 18.6906 7.50005 18.6303 7.50005 18.556C7.50005 18.4817 7.43981 18.4215 7.36552 18.4215C7.29122 18.4215 7.23099 18.4817 7.23099 18.556C7.23099 18.6303 7.29122 18.6906 7.36552 18.6906Z" fill="white"/>
<path d="M5.69726 17.742C5.7529 17.742 5.79801 17.6969 5.79801 17.6413C5.79801 17.5856 5.7529 17.5405 5.69726 17.5405C5.64162 17.5405 5.59651 17.5856 5.59651 17.6413C5.59651 17.6969 5.64162 17.742 5.69726 17.742Z" fill="white"/>
<path d="M11.1682 19.8565C11.224 19.8565 11.2693 19.8113 11.2693 19.7555C11.2693 19.6997 11.224 19.6544 11.1682 19.6544C11.1124 19.6544 11.0672 19.6997 11.0672 19.7555C11.0672 19.8113 11.1124 19.8565 11.1682 19.8565Z" fill="white"/>
<path d="M19.7487 18.0739C19.8043 18.0739 19.8494 18.0288 19.8494 17.9731C19.8494 17.9175 19.8043 17.8724 19.7487 17.8724C19.693 17.8724 19.6479 17.9175 19.6479 17.9731C19.6479 18.0288 19.693 18.0739 19.7487 18.0739Z" fill="white"/>
<path d="M22.2423 15.3656C22.2982 15.3656 22.3434 15.3204 22.3434 15.2646C22.3434 15.2088 22.2982 15.1635 22.2423 15.1635C22.1865 15.1635 22.1413 15.2088 22.1413 15.2646C22.1413 15.3204 22.1865 15.3656 22.2423 15.3656Z" fill="white"/>
<path d="M10.0201 5.81136C10.0758 5.81136 10.1209 5.76625 10.1209 5.71061C10.1209 5.65497 10.0758 5.60986 10.0201 5.60986C9.96448 5.60986 9.91937 5.65497 9.91937 5.71061C9.91937 5.76625 9.96448 5.81136 10.0201 5.81136Z" fill="white"/>
<path d="M12.7646 3.79579C12.8202 3.79579 12.8653 3.75069 12.8653 3.69505C12.8653 3.63941 12.8202 3.5943 12.7646 3.5943C12.7089 3.5943 12.6638 3.63941 12.6638 3.69505C12.6638 3.75069 12.7089 3.79579 12.7646 3.79579Z" fill="white"/>
<path d="M12.4665 3.59853C12.5221 3.59853 12.5672 3.55342 12.5672 3.49778C12.5672 3.44214 12.5221 3.39703 12.4665 3.39703C12.4108 3.39703 12.3657 3.44214 12.3657 3.49778C12.3657 3.55342 12.4108 3.59853 12.4665 3.59853Z" fill="white"/>
<path d="M12.1975 3.4012C12.2531 3.4012 12.2982 3.3561 12.2982 3.30045C12.2982 3.24481 12.2531 3.19971 12.1975 3.19971C12.1418 3.19971 12.0967 3.24481 12.0967 3.30045C12.0967 3.3561 12.1418 3.4012 12.1975 3.4012Z" fill="white"/>
<path d="M10.4507 6.33187C10.5064 6.33187 10.5515 6.28676 10.5515 6.23112C10.5515 6.17548 10.5064 6.13037 10.4507 6.13037C10.3951 6.13037 10.35 6.17548 10.35 6.23112C10.35 6.28676 10.3951 6.33187 10.4507 6.33187Z" fill="white"/>
<path d="M14.4932 1.0873C14.5488 1.0873 14.5939 1.04219 14.5939 0.986551C14.5939 0.930909 14.5488 0.885803 14.4932 0.885803C14.4375 0.885803 14.3924 0.930909 14.3924 0.986551C14.3924 1.04219 14.4375 1.0873 14.4932 1.0873Z" fill="white"/>
<path d="M15.1571 3.99312C15.2127 3.99312 15.2578 3.94801 15.2578 3.89237C15.2578 3.83673 15.2127 3.79163 15.1571 3.79163C15.1014 3.79163 15.0563 3.83673 15.0563 3.89237C15.0563 3.94801 15.1014 3.99312 15.1571 3.99312Z" fill="white"/>
<path d="M14.1099 3.42574C14.1655 3.42574 14.2106 3.38063 14.2106 3.32499C14.2106 3.26935 14.1655 3.22424 14.1099 3.22424C14.0542 3.22424 14.0091 3.26935 14.0091 3.32499C14.0091 3.38063 14.0542 3.42574 14.1099 3.42574Z" fill="white"/>
<path d="M12.3161 4.19728C12.3718 4.19728 12.4169 4.15218 12.4169 4.09654C12.4169 4.04089 12.3718 3.99579 12.3161 3.99579C12.2605 3.99579 12.2154 4.04089 12.2154 4.09654C12.2154 4.15218 12.2605 4.19728 12.3161 4.19728Z" fill="white"/>
<path d="M20.2264 20.7354C20.2821 20.7354 20.3272 20.6903 20.3272 20.6347C20.3272 20.579 20.2821 20.5339 20.2264 20.5339C20.1708 20.5339 20.1257 20.579 20.1257 20.6347C20.1257 20.6903 20.1708 20.7354 20.2264 20.7354Z" fill="white"/>
<path d="M6.84535 18.2625C6.90116 18.2625 6.9464 18.2172 6.9464 18.1614C6.9464 18.1056 6.90116 18.0604 6.84535 18.0604C6.78955 18.0604 6.74431 18.1056 6.74431 18.1614C6.74431 18.2172 6.78955 18.2625 6.84535 18.2625Z" fill="white"/>
<path d="M13.8588 19.5629C13.9146 19.5629 13.9598 19.5177 13.9598 19.4619C13.9598 19.4061 13.9146 19.3608 13.8588 19.3608C13.803 19.3608 13.7578 19.4061 13.7578 19.4619C13.7578 19.5177 13.803 19.5629 13.8588 19.5629Z" fill="white"/>
<path d="M8.93262 18.1818C8.98843 18.1818 9.03367 18.1365 9.03367 18.0807C9.03367 18.0249 8.98843 17.9797 8.93262 17.9797C8.87681 17.9797 8.83157 18.0249 8.83157 18.0807C8.83157 18.1365 8.87681 18.1818 8.93262 18.1818Z" fill="white"/>
<path d="M9.80497 19.6057C9.86077 19.6057 9.90601 19.5604 9.90601 19.5046C9.90601 19.4488 9.86077 19.4036 9.80497 19.4036C9.74916 19.4036 9.70392 19.4488 9.70392 19.5046C9.70392 19.5604 9.74916 19.6057 9.80497 19.6057Z" fill="white"/>
<path d="M16.2265 18.7085C16.2821 18.7085 16.3272 18.6634 16.3272 18.6078C16.3272 18.5521 16.2821 18.507 16.2265 18.507C16.1708 18.507 16.1257 18.5521 16.1257 18.6078C16.1257 18.6634 16.1708 18.7085 16.2265 18.7085Z" fill="white"/>
<path d="M19.7666 16.7106C19.8223 16.7106 19.8674 16.6655 19.8674 16.6098C19.8674 16.5542 19.8223 16.5091 19.7666 16.5091C19.711 16.5091 19.6659 16.5542 19.6659 16.6098C19.6659 16.6655 19.711 16.7106 19.7666 16.7106Z" fill="white"/>
<path d="M22.4506 17.9369C22.5063 17.9369 22.5514 17.8918 22.5514 17.8362C22.5514 17.7805 22.5063 17.7354 22.4506 17.7354C22.395 17.7354 22.3499 17.7805 22.3499 17.8362C22.3499 17.8918 22.395 17.9369 22.4506 17.9369Z" fill="white"/>
<path d="M23.3655 18.5223C23.4211 18.5223 23.4662 18.4772 23.4662 18.4215C23.4662 18.3659 23.4211 18.3208 23.3655 18.3208C23.3098 18.3208 23.2647 18.3659 23.2647 18.4215C23.2647 18.4772 23.3098 18.5223 23.3655 18.5223Z" fill="white"/>
<path d="M23.5158 16.9259C23.5714 16.9259 23.6166 16.8808 23.6166 16.8251C23.6166 16.7695 23.5714 16.7244 23.5158 16.7244C23.4602 16.7244 23.4151 16.7695 23.4151 16.8251C23.4151 16.8808 23.4602 16.9259 23.5158 16.9259Z" fill="white"/>
<path d="M10.1703 14.6658C10.226 14.6658 10.2711 14.6207 10.2711 14.565C10.2711 14.5094 10.226 14.4643 10.1703 14.4643C10.1147 14.4643 10.0696 14.5094 10.0696 14.565C10.0696 14.6207 10.1147 14.6658 10.1703 14.6658Z" fill="white"/>
<path d="M10.2085 17.0134C10.2828 17.0134 10.343 16.9532 10.343 16.8789C10.343 16.8046 10.2828 16.7444 10.2085 16.7444C10.1342 16.7444 10.074 16.8046 10.074 16.8789C10.074 16.9532 10.1342 17.0134 10.2085 17.0134Z" fill="white"/>
<path d="M11.0157 18.7175C11.09 18.7175 11.1503 18.6573 11.1503 18.583C11.1503 18.5087 11.09 18.4484 11.0157 18.4484C10.9414 18.4484 10.8812 18.5087 10.8812 18.583C10.8812 18.6573 10.9414 18.7175 11.0157 18.7175Z" fill="white"/>
<path d="M20.6838 16.9417C20.7581 16.9417 20.8184 16.8815 20.8184 16.8072C20.8184 16.7329 20.7581 16.6727 20.6838 16.6727C20.6095 16.6727 20.5493 16.7329 20.5493 16.8072C20.5493 16.8815 20.6095 16.9417 20.6838 16.9417Z" fill="white"/>
<path d="M24.1637 16.7444C24.238 16.7444 24.2982 16.6842 24.2982 16.6099C24.2982 16.5356 24.238 16.4753 24.1637 16.4753C24.0894 16.4753 24.0292 16.5356 24.0292 16.6099C24.0292 16.6842 24.0894 16.7444 24.1637 16.7444Z" fill="white"/>
<path d="M22.4417 16.009C22.516 16.009 22.5762 15.9488 22.5762 15.8745C22.5762 15.8002 22.516 15.7399 22.4417 15.7399C22.3674 15.7399 22.3071 15.8002 22.3071 15.8745C22.3071 15.9488 22.3674 16.009 22.4417 16.009Z" fill="white"/>
<path d="M20.6838 16.0807C20.7581 16.0807 20.8184 16.0205 20.8184 15.9462C20.8184 15.8719 20.7581 15.8116 20.6838 15.8116C20.6095 15.8116 20.5493 15.8719 20.5493 15.9462C20.5493 16.0205 20.6095 16.0807 20.6838 16.0807Z" fill="white"/>
<path d="M17.0579 2.22064L17.3924 2.18865L17.0585 2.16982C17.048 2.10525 16.9963 2.05472 16.9311 2.04635L16.8991 1.71332L16.88 2.04904C16.8196 2.0625 16.7733 2.11302 16.7658 2.1758L16.4238 2.20689L16.7682 2.22543C16.7808 2.28312 16.8274 2.32827 16.886 2.33903L16.9171 2.68223L16.9353 2.33963C16.9972 2.32916 17.0462 2.28163 17.0579 2.22064Z" fill="white"/>
<path d="M11.4118 5.94501L11.7463 5.91302L11.4124 5.89419C11.4022 5.82961 11.3502 5.77909 11.285 5.77072L11.253 5.43768L11.2342 5.77341C11.1735 5.78686 11.1272 5.83738 11.1197 5.90016L10.7777 5.93126L11.1221 5.94979C11.1346 6.00749 11.1813 6.05263 11.2399 6.06339L11.271 6.40659L11.2895 6.06399C11.3514 6.05383 11.4004 6.00599 11.4118 5.94501Z" fill="white"/>
<path d="M23.9185 15.7919L24.253 15.7599L23.9191 15.7411C23.9089 15.6765 23.8569 15.626 23.7917 15.6176L23.7597 15.2846L23.7409 15.6203C23.6805 15.6338 23.6342 15.6843 23.6267 15.7471L23.2847 15.7782L23.6291 15.7967C23.6416 15.8544 23.6883 15.8996 23.7469 15.9103L23.778 16.2535L23.7965 15.9109C23.8578 15.9008 23.9068 15.8532 23.9185 15.7919Z" fill="white"/>
<path d="M10.2818 20.9405L10.6163 20.9085L10.2824 20.8897C10.2719 20.8251 10.2202 20.7746 10.155 20.7662L10.1231 20.4335L10.1042 20.7689C10.0435 20.7824 9.9972 20.8329 9.98972 20.8957L9.64772 20.9267L9.99212 20.9453C10.0047 21.003 10.0513 21.0484 10.1099 21.0589L10.141 21.4021L10.1595 21.0595C10.2211 21.0493 10.2704 21.0015 10.2818 20.9405Z" fill="white"/>
<path d="M22.8558 18.4293L23.1903 18.3973L22.8564 18.3785C22.8462 18.3139 22.7942 18.2634 22.729 18.255L22.6971 17.922L22.6782 18.2574C22.6178 18.2709 22.5715 18.3214 22.564 18.3842L22.222 18.4153L22.5664 18.4338C22.579 18.4915 22.6256 18.5366 22.6842 18.5474L22.7153 18.8906L22.7338 18.548C22.7951 18.5381 22.8444 18.4903 22.8558 18.4293Z" fill="white"/>
<path d="M17.3144 9.12559C15.9191 9.66789 14.5583 10.1519 13.41 10.5112C11.0767 11.2419 4.69253 13.2198 0.836029 15.713L1.1589 15.8386C3.50867 14.5112 5.03603 14.0942 6.50419 13.6323C8.1006 13.1301 13.2614 11.9223 15.5984 11.2646C16.3879 11.0425 17.3126 10.7516 18.2919 10.3976C18.0641 10.0798 17.8238 9.76116 17.5709 9.44308C17.4863 9.33575 17.4005 9.22992 17.3144 9.12559ZM19.019 11.4751C18.6812 11.7032 18.3981 11.8852 18.1999 12C17.0519 12.6637 11.4552 16.4843 10.1819 17.3633C8.90867 18.2422 5.37474 21.5785 4.33438 22.5471L4.29851 22.9414C7.65277 19.928 8.70509 19.1848 10.0384 18.1704C11.6886 16.9148 15.1024 14.592 16.2626 13.8476C17.3718 13.1361 18.3721 12.4816 19.2698 11.8828C19.2552 11.8583 19.2405 11.8338 19.2259 11.809C19.1583 11.6981 19.0892 11.5869 19.019 11.4751ZM24.2623 5.93725C22.6283 6.89509 20.0528 8.05115 17.5541 9.03201C17.6139 9.10526 17.6734 9.1791 17.7326 9.25354C18.0118 9.60511 18.2752 9.95907 18.523 10.3133C20.4872 9.58986 22.6423 8.61886 24.3523 7.44367C23.5377 8.21557 20.8444 10.2284 19.2022 11.3504C19.2869 11.4882 19.3688 11.626 19.448 11.7633C21.9359 10.0984 23.61 8.87297 24.5855 8.05354C25.9308 6.92349 28.9981 4.39435 30.164 1.00421C28.1188 3.60541 25.7009 5.0939 24.2623 5.93725Z" fill="#FC3D21"/>
<path d="M12.9245 14.9713C12.6599 14.6383 12.294 14.1922 12.0192 13.8464C11.6518 13.3839 11.3119 12.9166 11.0004 12.4499C10.8987 12.4754 10.7974 12.5008 10.6961 12.5262C11.0721 13.113 11.4898 13.699 11.9448 14.2718C12.2772 14.6903 12.5795 15.0272 12.7343 15.2368C12.7657 15.2792 12.8279 15.3731 12.9119 15.4981C13.0088 15.4323 13.1065 15.3659 13.2052 15.299C13.1098 15.1952 13.0156 15.0861 12.9245 14.9713ZM14.8557 16.7244C14.6384 16.5187 14.1113 16.1752 13.5627 15.6598C13.4416 15.7429 13.3194 15.8272 13.1968 15.9121C13.5511 16.4114 14.0336 17.0245 14.4114 17.2033C14.9807 17.473 15.134 16.9881 14.8557 16.7244ZM17.7325 9.25353C14.5959 5.30554 10.7642 3.13663 9.1122 4.44934C7.82909 5.46877 8.35584 8.44814 10.1245 11.5779C10.2159 11.5465 10.3065 11.5157 10.3962 11.4852C8.61115 8.43589 8.12266 5.60211 9.33282 4.64037C10.8536 3.432 14.5257 5.60928 17.5714 9.44276C18.2019 10.2362 18.7561 11.0326 19.2255 11.809C21.0228 14.7836 21.5744 17.4736 20.3325 18.5716C19.9526 18.9076 18.7914 19.0395 17.2703 18.3549C17.2491 18.3815 17.2832 18.4535 17.3098 18.4712C18.6228 18.9991 19.8805 19.2003 20.5155 18.696C22.0413 17.4834 20.8691 13.2015 17.7325 9.25353Z" fill="white"/>
<path d="M4.28027 9.72198H6.28924L7.97534 12.583C7.97534 12.583 7.97534 10.5112 7.97534 10.3498C7.97534 10.0987 7.65696 9.77131 7.54485 9.72198C7.67938 9.72198 8.85426 9.72198 8.93498 9.72198C8.84978 9.74441 8.57624 10.0762 8.57624 10.3498C8.57624 10.4843 8.57624 13.4888 8.57624 13.6323C8.57624 13.8341 8.86772 14.1121 9.00673 14.2197H7.06951L5.35651 11.3453C5.35651 11.3453 5.35651 13.4888 5.35651 13.6054C5.35651 13.8296 5.57624 14.0449 5.80494 14.2287H4.32512C4.53588 14.139 4.73767 13.8565 4.75561 13.6323C4.77355 13.4081 4.75561 10.5157 4.75561 10.3901C4.75561 10.1166 4.49104 9.89239 4.28027 9.72198Z" fill="white"/>
<path d="M22.6569 14.2197H25.3295C25.1816 14.1839 25.0156 14.009 24.926 13.7758C24.8363 13.5426 23.4192 9.72198 23.4192 9.72198H22.4031C22.1149 9.92946 21.8061 10.1483 21.4763 10.3788C21.4754 10.3872 21.4745 10.3955 21.473 10.4036C21.4288 10.6727 20.6336 13.5528 20.5852 13.6951C20.5179 13.8924 20.1726 14.1121 20.0336 14.2287H21.473C21.3295 14.0673 21.213 13.9103 21.2399 13.731C21.2668 13.5516 21.3475 13.1928 21.3475 13.1928H22.8363C22.9035 13.3722 22.9538 13.5333 22.9798 13.6861C23.0112 13.87 22.8228 14.0762 22.6569 14.2197ZM21.482 12.6188L21.9843 10.9776L22.6479 12.6188H21.482ZM21.2557 9.88581C21.3295 9.8314 21.4037 9.77669 21.4775 9.72198H21.0874C21.1263 9.75786 21.1905 9.81436 21.2557 9.88581Z" fill="white"/>
<path d="M11.0337 13.731C11.0606 13.5516 11.1413 13.1928 11.1413 13.1928H12.6301C12.6974 13.3722 12.7476 13.5333 12.7736 13.6861C12.805 13.87 12.6166 14.0762 12.4507 14.2197H14.8038C14.8528 14.1869 14.9015 14.154 14.9503 14.1214C14.8591 14.0407 14.7751 13.9196 14.7198 13.7758C14.6301 13.5426 13.2131 9.72198 13.2131 9.72198H10.8812C10.9933 9.82512 11.3162 10.1032 11.2669 10.4036C11.2229 10.6727 10.4274 13.5528 10.379 13.6951C10.3117 13.8924 9.96642 14.1121 9.82741 14.2287H11.2669C11.1234 14.0673 11.0068 13.9103 11.0337 13.731ZM11.7781 10.9776L12.4418 12.6188H11.2758L11.7781 10.9776Z" fill="white"/>
<path d="M19.1619 11.9545C18.723 12.2469 18.26 12.5521 17.7721 12.8708C17.9909 12.977 18.1652 13.1103 18.1819 13.2825C18.213 13.606 17.5631 13.7623 16.9757 13.695C16.8582 13.6816 16.7428 13.6508 16.6328 13.6095C16.5108 13.6882 16.3876 13.7674 16.2627 13.8475C16.1356 13.9291 15.9813 14.0296 15.8053 14.1456V14.6098C15.9218 14.3811 16.1769 14.1764 16.3748 14.1659C16.46 14.1614 16.7559 14.435 17.9757 14.3677C18.5676 14.3351 19.7111 13.704 19.6931 12.9776C19.6824 12.5483 19.4582 12.2134 19.1619 11.9545ZM15.805 13.0762V13.5492C15.9129 13.4771 16.0193 13.4063 16.1236 13.3372C15.9595 13.223 15.8432 13.1163 15.805 13.0762ZM18.7449 11.6577C18.6313 11.5904 18.5162 11.5315 18.4059 11.4795C17.8319 11.2104 17.231 11.1611 17.1054 10.7979C17.0169 10.5417 17.2668 10.3046 17.8767 10.3136C18.4866 10.3226 19.0516 10.6858 19.2041 10.8158V9.65887C19.1592 9.70372 18.9625 9.92943 18.7825 9.89206C18.4372 9.82031 17.8498 9.72674 17.1772 9.73062C16.4059 9.73511 15.7422 10.3312 15.7198 11.0849C15.6884 12.1387 16.5314 12.4257 17.0068 12.5916C17.0558 12.6087 17.1117 12.6269 17.1724 12.6463C17.6283 12.3498 17.9888 12.1214 18.1999 11.9997C18.3416 11.9181 18.5272 11.8009 18.7449 11.6577Z" fill="white"/>
</svg>
