<svg width="25" height="24" viewBox="0 0 25 24" fill="none" xmlns="http://www.w3.org/2000/svg">
<path d="M12.375 7.12495V14.925L15.525 16.85L14.7 13.25L17.475 10.85L13.825 10.525L12.375 7.12495ZM12.375 17.275L8.22502 19.775C8.04168 19.8916 7.85002 19.9416 7.65001 19.9249C7.45001 19.9083 7.27501 19.8416 7.12502 19.725C6.97501 19.6083 6.85835 19.4625 6.77502 19.2874C6.69168 19.1125 6.67502 18.9166 6.72502 18.7L7.82502 13.975L4.15002 10.8C3.98335 10.65 3.87918 10.4791 3.83752 10.2875C3.79585 10.0958 3.80835 9.90828 3.87502 9.72495C3.94168 9.54162 4.04168 9.39162 4.17502 9.27495C4.30835 9.15828 4.49168 9.08328 4.72502 9.04995L9.57502 8.62495L11.45 4.17495C11.5333 3.97495 11.6625 3.82495 11.8375 3.72495C12.0125 3.62495 12.1917 3.57495 12.375 3.57495C12.5583 3.57495 12.7375 3.62495 12.9125 3.72495C13.0875 3.82495 13.2167 3.97495 13.3 4.17495L15.175 8.62495L20.025 9.04995C20.2583 9.08328 20.4417 9.15828 20.575 9.27495C20.7083 9.39162 20.8083 9.54162 20.875 9.72495C20.9417 9.90828 20.9542 10.0958 20.9125 10.2875C20.8708 10.4791 20.7667 10.65 20.6 10.8L16.925 13.975L18.025 18.7C18.075 18.9166 18.0583 19.1125 17.975 19.2874C17.8917 19.4625 17.775 19.6083 17.625 19.725C17.475 19.8416 17.3 19.9083 17.1 19.9249C16.9 19.9416 16.7083 19.8916 16.525 19.775L12.375 17.275Z" fill="#00797A"/>
</svg>
