<svg width="25" height="24" viewBox="0 0 25 24" fill="none" xmlns="http://www.w3.org/2000/svg">
<path d="M10.85 13.8L8.7 11.65C8.51667 11.4667 8.28333 11.375 8 11.375C7.71667 11.375 7.48333 11.4667 7.3 11.65C7.11667 11.8333 7.025 12.0667 7.025 12.35C7.025 12.6333 7.11667 12.8667 7.3 13.05L10.15 15.9C10.35 16.1 10.5833 16.2 10.85 16.2C11.1167 16.2 11.35 16.1 11.55 15.9L17.2 10.25C17.3833 10.0667 17.475 9.83333 17.475 9.55C17.475 9.26667 17.3833 9.03333 17.2 8.85C17.0167 8.66667 16.7833 8.575 16.5 8.575C16.2167 8.575 15.9833 8.66667 15.8 8.85L10.85 13.8ZM12.25 22C10.8667 22 9.56667 21.7375 8.35 21.2125C7.13333 20.6875 6.075 19.975 5.175 19.075C4.275 18.175 3.5625 17.1167 3.0375 15.9C2.5125 14.6833 2.25 13.3833 2.25 12C2.25 10.6167 2.5125 9.31667 3.0375 8.1C3.5625 6.88333 4.275 5.825 5.175 4.925C6.075 4.025 7.13333 3.3125 8.35 2.7875C9.56667 2.2625 10.8667 2 12.25 2C13.6333 2 14.9333 2.2625 16.15 2.7875C17.3667 3.3125 18.425 4.025 19.325 4.925C20.225 5.825 20.9375 6.88333 21.4625 8.1C21.9875 9.31667 22.25 10.6167 22.25 12C22.25 13.3833 21.9875 14.6833 21.4625 15.9C20.9375 17.1167 20.225 18.175 19.325 19.075C18.425 19.975 17.3667 20.6875 16.15 21.2125C14.9333 21.7375 13.6333 22 12.25 22ZM12.25 20C14.4833 20 16.375 19.225 17.925 17.675C19.475 16.125 20.25 14.2333 20.25 12C20.25 9.76667 19.475 7.875 17.925 6.325C16.375 4.775 14.4833 4 12.25 4C10.0167 4 8.125 4.775 6.575 6.325C5.025 7.875 4.25 9.76667 4.25 12C4.25 14.2333 5.025 16.125 6.575 17.675C8.125 19.225 10.0167 20 12.25 20Z" fill="#00797A"/>
</svg>
