<svg width="25" height="24" viewBox="0 0 25 24" fill="none" xmlns="http://www.w3.org/2000/svg">
<path d="M0.262695 0H24.2374V24H0.262695V0Z" fill="black"/>
<path d="M0.44043 0.177368H24.0601V23.8141H0.44043V0.177368Z" fill="white"/>
<path d="M6.81784 1.43628C4.90879 2.17115 3.08388 3.35363 1.69016 5.12766L1.68164 1.43628H6.81784Z" fill="black"/>
<path d="M22.8178 2.78783C21.5169 2.48375 20.3764 3.04975 19.3457 3.64089C17.1494 1.77401 13.652 2.61024 11.2696 3.48054C9.94342 4.0212 8.06803 5.05185 8.11019 6.7752C8.11019 7.35803 8.51564 7.87335 9.01435 8.15209C9.38593 8.38036 9.81672 8.47321 10.1883 8.70127C10.2307 8.73513 10.2475 8.79412 10.2136 8.8448C9.97707 9.06455 9.65616 9.10672 9.35229 9.17422C7.99201 9.41932 6.71668 9.85862 5.49993 10.4161C4.92541 10.6865 4.36813 10.9908 3.83578 11.3539C3.07557 10.8895 2.34049 10.3318 1.68164 9.63056V5.93045C2.88115 4.12256 4.7229 2.77101 6.58977 2.01059L7.9837 1.43628H22.8178V2.78783Z" fill="black"/>
<path d="M18.9239 3.85234C15.6293 5.82058 13.6947 9.24174 12.1911 12.3929C9.8257 12.6716 7.23226 12.6041 5.07812 11.9199C6.47205 10.3403 8.34744 9.82477 10.1805 9.26728C10.3749 9.18275 10.6788 9.05584 10.6788 8.78582C10.6619 8.49004 10.3155 8.35503 10.1381 8.12676C9.68197 7.66212 9.60595 6.90191 9.80015 6.28522C10.4 4.46051 12.3597 3.63259 14.0156 3.2018C15.6039 2.79636 17.6228 2.81318 18.9239 3.85234ZM22.8182 3.22714V6.78351C20.3347 9.59671 17.2766 11.2187 13.9483 12.1056C15.3759 9.40229 16.9557 6.74135 19.4054 4.46882C19.8023 4.95859 19.929 5.69367 19.718 6.31887C19.5574 6.87636 19.1603 7.50987 18.5606 7.68746C18.3409 7.73793 18.0623 7.67894 17.944 7.92404C17.9272 7.96417 17.9185 8.00724 17.9185 8.05074C17.9185 8.09424 17.9272 8.1373 17.944 8.17744C18.02 8.32097 18.1637 8.35482 18.3155 8.35482C19.2787 8.26198 19.8866 7.22282 20.1403 6.42023C20.4022 5.61786 20.1488 4.7646 19.777 4.09702C20.6473 3.47224 21.6526 2.95671 22.8182 3.22714Z" fill="black"/>
<path d="M22.8095 18.0697C20.8578 19.4213 18.5517 20.2239 16.0006 19.7846C15.2351 19.6496 14.4789 19.4661 13.7366 19.2354C15.0715 18.0444 16.3215 16.718 16.33 14.9271C16.2625 14.3694 16.195 13.7529 15.688 13.4235C15.5866 13.3982 15.4682 13.3896 15.3839 13.4318C15.3358 13.4597 15.2953 13.4989 15.2658 13.546C15.2364 13.5932 15.2189 13.6468 15.215 13.7023C15.2404 13.9559 15.5276 14.1077 15.6456 14.3274C15.9838 14.902 15.7977 15.7129 15.5698 16.2791C15.122 17.3434 14.1759 18.2643 13.2549 19.0837C12.1076 18.5917 11.0124 17.9861 9.98579 17.2759C11.5824 15.958 12.6976 14.3108 13.6267 12.655C17.0566 11.9455 20.1651 10.4417 22.8095 7.82288V18.0697ZM3.44716 11.6327C2.79662 12.1733 2.16311 12.8322 1.69016 13.4995L1.68164 10.2641C2.24764 10.7709 2.82216 11.2523 3.44716 11.6327Z" fill="black"/>
<path d="M11.9801 12.8575C11.3295 14.3019 10.6454 15.7297 9.49632 16.9716C8.44054 16.3126 7.3507 15.5102 5.98211 15.7974C5.59349 15.8988 5.17122 16.1775 5.01066 16.583C4.85862 16.9294 4.9093 17.4107 5.15419 17.698C5.6693 18.2557 6.37904 18.3907 7.12263 18.4077C8.06023 18.4077 8.85429 18.0698 9.58937 17.5798C10.5776 18.2557 11.5829 18.923 12.6221 19.4973C10.8902 20.4098 8.88815 20.9926 6.75935 20.6632C5.17974 20.4264 3.42253 19.2101 3.08459 17.5542C2.66232 15.5268 3.55754 13.7613 4.76578 12.266C6.93674 13.0349 9.55572 13.1278 11.9801 12.8575Z" fill="black"/>
<path d="M9.14936 17.2503C8.24541 17.943 6.76695 18.2303 5.728 17.6136C5.45756 17.4192 5.33086 17.1068 5.41539 16.7774C5.5421 16.3719 5.97288 16.2114 6.34468 16.169C7.45155 16.1268 8.27927 16.735 9.14936 17.2503ZM8.59187 21.2545C10.2139 21.0942 11.667 20.5197 13.0356 19.7509C14.9699 20.7731 17.4028 21.5418 19.6839 20.7645C20.8327 20.393 21.8634 19.7509 22.818 18.8977V22.5471H1.68164V18.6019C3.54021 20.5618 5.8547 21.5164 8.59187 21.2545Z" fill="black"/>
</svg>
