<svg width="21" height="26" viewBox="0 0 21 26" fill="none" xmlns="http://www.w3.org/2000/svg">
<path d="M0.277344 0.999939H20.4979V8.61284C20.4979 12.0967 19.2017 19.5032 10.4654 24.9999C10.4654 24.9999 1.00321 21.0516 0.277344 8.61284V0.999939Z" fill="#A51C30"/>
<path d="M0.251953 1H20.4725V8.6129C20.4725 12.0968 19.1763 19.4774 10.44 25C10.44 25 0.977819 21.0774 0.251953 8.6129V1Z" stroke="black" stroke-width="0.395938"/>
<path d="M15.5983 10.7808C15.5983 10.7808 15.4168 11.3485 14.6132 10.755L11.8652 10.6776C11.8652 10.6776 11.5023 10.7808 11.4505 10.4195C11.4505 10.4195 11.5282 9.67113 11.4764 9.59371C11.4764 9.59371 11.5023 9.38726 11.1394 9.38726C11.1394 9.38726 10.569 9.46468 10.569 8.97435C10.569 8.97435 10.4654 8.45822 11.2431 8.45822C11.2431 8.45822 11.4764 8.56145 11.5023 8.25177C11.5023 8.25177 11.4764 6.13564 11.4764 5.9808C11.4764 5.9808 11.5542 5.77435 11.1653 5.74855C11.1653 5.74855 10.6209 5.85177 10.569 5.51629C10.569 5.51629 10.5431 4.97435 10.9061 4.94855C10.9061 4.94855 11.3468 4.97435 11.4245 4.87113C11.4245 4.87113 11.5282 4.92274 11.5023 4.53564L11.5282 3.86468C11.5282 3.86468 11.5801 3.68403 11.8652 3.70984C11.8652 3.70984 12.3837 3.73564 12.4356 3.68403C12.4356 3.68403 12.5393 3.52919 12.5911 3.47758C12.5911 3.47758 12.8503 3.45177 12.9022 3.52919C12.9022 3.52919 13.291 3.78726 14.7946 3.68403C14.7946 3.68403 15.0279 3.68403 15.0798 3.76145C15.0798 3.76145 15.365 3.9679 15.5205 3.73564C15.5205 3.73564 15.7538 3.68403 16.5056 3.70984C16.5056 3.70984 17.3092 3.91629 17.8796 3.47758L18.061 3.50339C18.061 3.50339 18.2943 3.89048 18.4499 3.76145C18.4499 3.76145 18.9424 3.70984 19.0202 3.81306C19.0202 3.81306 19.1757 4.04532 19.098 4.69048C19.098 4.69048 18.9943 4.97435 19.4868 4.97435C19.4868 4.97435 20.0312 4.87113 19.9535 5.38726C19.9535 5.38726 20.109 5.955 19.2017 5.87758C19.2017 5.87758 19.098 6.03242 19.098 6.16145C19.098 6.16145 19.0721 8.01951 19.0721 8.22597C19.0721 8.22597 19.0461 8.50984 19.4609 8.50984C19.4609 8.50984 19.9794 8.48403 20.0053 8.94855C20.0053 8.94855 20.0831 9.5679 19.3054 9.46468C19.3054 9.46468 19.0721 9.49048 19.0461 9.64532L19.0202 10.4711C19.0202 10.4711 19.0461 10.884 18.5795 10.7808C18.5017 10.7808 16.013 10.8324 15.8057 10.755C15.7279 10.7292 15.6242 10.7034 15.5983 10.7808Z" fill="white"/>
<path d="M10.2835 13.5161C10.2835 13.5161 10.3872 13.4645 10.439 13.3871C10.439 13.3871 10.7761 13.3613 10.8279 13.3096L11.9167 13.3871C11.9167 13.3871 12.9796 13.4645 13.4462 13.129C13.4462 13.129 13.6018 13.129 13.7314 13.1806C13.7314 13.1806 13.9647 13.2322 14.0165 13.3355L14.6387 13.3096C14.6387 13.3096 15.0016 13.4129 14.9757 13.6451V13.929C14.9757 13.929 14.8979 14.5226 15.0794 14.5484H15.546C15.546 14.5484 15.9349 14.729 15.883 14.9613C15.883 14.9613 15.909 15.2967 15.546 15.3484C15.546 15.3484 15.209 15.4516 15.0794 15.4258C15.0794 15.4258 14.9757 15.5806 14.9498 15.7613L14.9239 17.9032C14.9239 17.9032 14.8979 18.1355 15.235 18.1096C15.235 18.1096 15.7534 18.058 15.883 18.3419C15.883 18.3419 16.0127 18.8064 15.7534 18.8838L15.546 18.9871L15.1313 19.0645C15.1313 19.0645 14.9498 19.0903 14.9239 19.4V19.9677C14.9239 19.9677 14.9498 20.3548 14.6387 20.3548L14.1721 20.3806C14.1721 20.3806 14.0684 20.4838 13.8351 20.4064C13.8351 20.4064 11.0353 20.458 10.9575 20.4322L10.6205 20.4838C10.6205 20.4838 10.2576 20.8193 9.97242 20.5613L9.73911 20.3806C9.73911 20.3806 9.58357 20.4064 9.50579 20.4064C9.42802 20.3806 6.42086 20.4322 6.42086 20.4322C6.42086 20.4322 5.77277 20.5096 5.72092 20.2774C5.72092 20.2774 5.64315 19.4516 5.66907 19.3484C5.66907 19.3484 5.66907 19.1161 5.51353 19.0903C5.51353 19.0903 4.86544 19.0645 4.86544 18.9871C4.86544 18.9871 4.52843 18.7548 4.63212 18.4967C4.63212 18.4967 4.73582 18.1613 5.09875 18.1355C5.09875 18.1355 5.61723 18.2129 5.61723 18.058C5.61723 18.058 5.64315 17.9548 5.64315 17.8C5.64315 17.8 5.66907 15.8645 5.66907 15.7355C5.66907 15.7355 5.72092 15.4774 5.51353 15.4774C5.51353 15.4774 5.28022 15.5548 5.12467 15.4516C5.12467 15.4516 4.73582 15.4774 4.65805 15.1677C4.65805 15.1677 4.58027 14.9613 4.68397 14.8064C4.68397 14.8064 4.86544 14.4451 5.38391 14.5742C5.38391 14.5742 5.66907 14.6516 5.72092 14.4451L5.695 13.6709C5.695 13.6709 5.61723 13.4645 6.03201 13.3355C6.03201 13.3355 6.55048 13.4903 6.73195 13.2322C6.73195 13.2322 6.91341 12.8709 7.06896 13.129C7.06896 13.129 7.38004 13.4129 8.23553 13.3871C8.23553 13.3871 9.71318 13.2838 9.73911 13.3355C9.73911 13.3355 10.102 13.3871 10.2057 13.4903L10.2835 13.5161Z" fill="white"/>
<path d="M5.8258 10.7807C5.8258 10.7807 5.64434 11.3484 4.8407 10.7549L2.09278 10.7033C2.09278 10.7033 1.72984 10.8065 1.678 10.4452C1.678 10.4452 1.75577 9.6968 1.70392 9.61938C1.70392 9.61938 1.72984 9.41293 1.36691 9.41293C1.36691 9.41293 0.822512 9.49035 0.796588 9.00003C0.796588 9.00003 0.692893 8.4839 1.47061 8.4839C1.47061 8.4839 1.70392 8.58712 1.72984 8.27744C1.72984 8.27744 1.70392 6.16132 1.70392 5.98067C1.70392 5.98067 1.78169 5.77422 1.39284 5.74841C1.39284 5.74841 0.848436 5.85164 0.796588 5.49035C0.796588 5.49035 0.770664 4.94841 1.1336 4.92261C1.1336 4.92261 1.5743 4.94841 1.65207 4.84519C1.65207 4.84519 1.75577 4.8968 1.72984 4.5097L1.75577 3.83874C1.75577 3.83874 1.80762 3.65809 2.09278 3.6839C2.09278 3.6839 2.61125 3.7097 2.6631 3.65809C2.6631 3.65809 2.7668 3.50325 2.81864 3.45164C2.81864 3.45164 3.07788 3.42583 3.12973 3.50325C3.12973 3.50325 3.51859 3.76132 5.02216 3.65809C5.02216 3.65809 5.25548 3.65809 5.30733 3.73551C5.30733 3.73551 5.59249 3.94196 5.74803 3.7097C5.74803 3.7097 5.98135 3.65809 6.73313 3.6839C6.73313 3.6839 7.53677 3.89035 8.08117 3.45164L8.26264 3.47745C8.26264 3.47745 8.49595 3.86454 8.6515 3.73551C8.6515 3.73551 9.14405 3.6839 9.22182 3.78712C9.22182 3.78712 9.37736 4.01938 9.29959 4.66454C9.29959 4.66454 9.1959 4.94841 9.68845 4.94841C9.68845 4.94841 10.2328 4.84519 10.1551 5.36132C10.1551 5.36132 10.3106 5.92906 9.40329 5.85164C9.40329 5.85164 9.29959 6.00648 9.29959 6.13551C9.29959 6.13551 9.27367 7.99357 9.27367 8.20003C9.27367 8.20003 9.24774 8.4839 9.66252 8.4839C9.66252 8.4839 10.181 8.45809 10.2069 8.92261C10.2069 8.92261 10.2847 9.54196 9.50698 9.43874C9.50698 9.43874 9.27367 9.46454 9.24774 9.61938L9.19589 10.4452C9.19589 10.4452 9.22182 10.8581 8.75519 10.7549C8.67742 10.7549 6.18874 10.8065 5.98135 10.7291C5.98135 10.7291 5.87765 10.7033 5.8258 10.7807Z" fill="white"/>
<path d="M15.5983 10.7808C15.5983 10.7808 15.4168 11.3485 14.6132 10.755L11.8652 10.6776C11.8652 10.6776 11.5023 10.7808 11.4505 10.4195C11.4505 10.4195 11.5282 9.67113 11.4764 9.59371C11.4764 9.59371 11.5023 9.38726 11.1394 9.38726C11.1394 9.38726 10.569 9.46468 10.569 8.97435C10.569 8.97435 10.4654 8.45822 11.2431 8.45822C11.2431 8.45822 11.4764 8.56145 11.5023 8.25177C11.5023 8.25177 11.4764 6.13564 11.4764 5.9808C11.4764 5.9808 11.5542 5.77435 11.1653 5.74855C11.1653 5.74855 10.6209 5.85177 10.569 5.51629C10.569 5.51629 10.5431 4.97435 10.9061 4.94855C10.9061 4.94855 11.3468 4.97435 11.4245 4.87113C11.4245 4.87113 11.5282 4.92274 11.5023 4.53564L11.5282 3.86468C11.5282 3.86468 11.5801 3.68403 11.8652 3.70984C11.8652 3.70984 12.3837 3.73564 12.4356 3.68403C12.4356 3.68403 12.5393 3.52919 12.5911 3.47758C12.5911 3.47758 12.8503 3.45177 12.9022 3.52919C12.9022 3.52919 13.291 3.78726 14.7946 3.68403C14.7946 3.68403 15.0279 3.68403 15.0798 3.76145C15.0798 3.76145 15.365 3.9679 15.5205 3.73564C15.5205 3.73564 15.7538 3.68403 16.5056 3.70984C16.5056 3.70984 17.3092 3.91629 17.8796 3.47758L18.061 3.50339C18.061 3.50339 18.2943 3.89048 18.4499 3.76145C18.4499 3.76145 18.9424 3.70984 19.0202 3.81306C19.0202 3.81306 19.1757 4.04532 19.098 4.69048C19.098 4.69048 18.9943 4.97435 19.4868 4.97435C19.4868 4.97435 20.0312 4.87113 19.9535 5.38726C19.9535 5.38726 20.109 5.955 19.2017 5.87758C19.2017 5.87758 19.098 6.03242 19.098 6.16145C19.098 6.16145 19.0721 8.01951 19.0721 8.22597C19.0721 8.22597 19.0461 8.50984 19.4609 8.50984C19.4609 8.50984 19.9794 8.48403 20.0053 8.94855C20.0053 8.94855 20.0831 9.5679 19.3054 9.46468C19.3054 9.46468 19.0721 9.49048 19.0461 9.64532L19.0202 10.4711C19.0202 10.4711 19.0461 10.884 18.5795 10.7808C18.5017 10.7808 16.013 10.8324 15.8057 10.755C15.7279 10.7292 15.6242 10.7034 15.5983 10.7808Z" fill="#1E1E1E"/>
<path d="M15.5983 10.7808C15.5983 10.7808 15.4168 11.3485 14.6132 10.755L11.8652 10.6776C11.8652 10.6776 11.5023 10.7808 11.4505 10.4195C11.4505 10.4195 11.5282 9.67113 11.4764 9.59371C11.4764 9.59371 11.5023 9.38726 11.1394 9.38726C11.1394 9.38726 10.569 9.46468 10.569 8.97435C10.569 8.97435 10.4654 8.45822 11.2431 8.45822C11.2431 8.45822 11.4764 8.56145 11.5023 8.25177C11.5023 8.25177 11.4764 6.13564 11.4764 5.9808C11.4764 5.9808 11.5542 5.77435 11.1653 5.74855C11.1653 5.74855 10.6209 5.85177 10.569 5.51629C10.569 5.51629 10.5431 4.97435 10.9061 4.94855C10.9061 4.94855 11.3468 4.97435 11.4245 4.87113C11.4245 4.87113 11.5282 4.92274 11.5023 4.53564L11.5282 3.86468C11.5282 3.86468 11.5801 3.68403 11.8652 3.70984C11.8652 3.70984 12.3837 3.73564 12.4356 3.68403C12.4356 3.68403 12.5393 3.52919 12.5911 3.47758C12.5911 3.47758 12.8503 3.45177 12.9022 3.52919C12.9022 3.52919 13.291 3.78726 14.7946 3.68403C14.7946 3.68403 15.0279 3.68403 15.0798 3.76145C15.0798 3.76145 15.365 3.9679 15.5205 3.73564C15.5205 3.73564 15.7538 3.68403 16.5056 3.70984C16.5056 3.70984 17.3092 3.91629 17.8796 3.47758L18.061 3.50339C18.061 3.50339 18.2943 3.89048 18.4499 3.76145C18.4499 3.76145 18.9424 3.70984 19.0202 3.81306C19.0202 3.81306 19.1757 4.04532 19.098 4.69048C19.098 4.69048 18.9943 4.97435 19.4868 4.97435C19.4868 4.97435 20.0312 4.87113 19.9535 5.38726C19.9535 5.38726 20.109 5.955 19.2017 5.87758C19.2017 5.87758 19.098 6.03242 19.098 6.16145C19.098 6.16145 19.0721 8.01951 19.0721 8.22597C19.0721 8.22597 19.0461 8.50984 19.4609 8.50984C19.4609 8.50984 19.9794 8.48403 20.0053 8.94855C20.0053 8.94855 20.0831 9.5679 19.3054 9.46468C19.3054 9.46468 19.0721 9.49048 19.0461 9.64532L19.0202 10.4711C19.0202 10.4711 19.0461 10.884 18.5795 10.7808C18.5017 10.7808 16.013 10.8324 15.8057 10.755C15.7279 10.7292 15.6242 10.7034 15.5983 10.7808Z" stroke="black" stroke-width="0.0947222"/>
<path d="M12.4875 4.04501C12.4875 4.04501 12.5134 4.38049 12.5134 4.45791C12.5134 4.53533 12.4616 9.18049 12.4616 9.18049C12.4616 9.18049 12.5134 9.54178 12.2023 9.72243C12.2023 9.72243 12.1246 9.74823 12.0986 9.51597L12.1246 4.61275C12.1505 4.61275 12.1764 4.0192 12.4875 4.04501Z" fill="white"/>
<path d="M12.4875 4.04501C12.4875 4.04501 12.5134 4.38049 12.5134 4.45791C12.5134 4.53533 12.4616 9.18049 12.4616 9.18049C12.4616 9.18049 12.5134 9.54178 12.2023 9.72243C12.2023 9.72243 12.1246 9.74823 12.0986 9.51597L12.1246 4.61275C12.1505 4.61275 12.1764 4.0192 12.4875 4.04501Z" stroke="black" stroke-width="0.0997417"/>
<path d="M11.9438 9.77413C11.9438 9.77413 11.9697 5.18058 11.9697 5.10316C11.9438 5.02575 11.9956 5.18058 11.9956 5.18058C11.9956 5.18058 11.9438 4.38058 12.1512 4.0451C12.1512 4.0451 12.0734 3.76123 11.7105 4.12252L11.6845 4.74187C11.6845 4.74187 11.6845 5.12897 11.3475 5.10316C11.3475 5.10316 10.9587 5.07736 10.7772 5.258C10.7772 5.258 10.6735 5.61929 11.0624 5.54187C11.0624 5.54187 11.6586 5.54187 11.6845 5.77413L11.6586 8.25155C11.6586 8.25155 11.7882 8.66445 11.3216 8.66445C11.3216 8.66445 10.7513 8.63865 10.7772 8.97413C10.7772 8.97413 10.8809 9.258 11.3734 9.18058C11.3734 9.18058 11.7105 9.2322 11.7105 9.56768V10.187C11.7105 10.187 11.6845 10.4451 11.9956 10.4451H14.5621C14.5621 10.4451 14.6917 10.4709 14.6917 10.2903C14.6917 10.2903 14.6658 10.1612 14.4843 10.1612H12.3326C12.3326 10.1612 11.9697 10.2645 11.9438 9.77413Z" fill="white"/>
<path d="M12.4357 9.74855C12.4357 9.74855 12.358 9.98081 12.6172 9.9292H14.3023L14.7689 10.0324C14.7689 10.0324 15.2355 9.9292 14.7689 9.64533C14.7689 9.64533 13.2653 9.67114 13.1357 9.61952C13.1357 9.61952 12.8246 9.5421 12.7468 9.5163C12.7468 9.5421 12.5913 9.49049 12.4357 9.74855Z" fill="white"/>
<path d="M12.4357 9.74855C12.4357 9.74855 12.358 9.98081 12.6172 9.9292H14.3023L14.7689 10.0324C14.7689 10.0324 15.2355 9.9292 14.7689 9.64533C14.7689 9.64533 13.2653 9.67114 13.1357 9.61952C13.1357 9.61952 12.8246 9.5421 12.7468 9.5163C12.7468 9.5421 12.5913 9.49049 12.4357 9.74855Z" stroke="black" stroke-width="0.0997417"/>
<path d="M15.2359 9.98054C15.2359 9.98054 14.9248 9.98054 14.9508 10.3934C14.9508 10.3934 14.9767 10.7031 15.3137 10.7031C15.3137 10.7031 15.5988 10.6515 15.5729 10.316C15.5729 10.3418 15.3915 9.92893 15.2359 9.98054Z" fill="white"/>
<path d="M15.4685 9.82595C15.4685 9.82595 15.624 9.67111 15.7018 9.67111C15.7018 9.67111 17.335 9.82595 17.6202 9.6195C17.6202 9.6195 17.8794 9.56788 17.9312 9.6195C17.9312 9.6195 18.1646 9.82595 18.1646 9.92917C18.1646 9.92917 18.1386 10.084 17.8535 9.98079C17.8535 9.98079 16.0129 10.0066 15.9092 10.0066C15.9351 10.0066 15.4166 10.1098 15.4685 9.82595Z" fill="white"/>
<path d="M15.4685 9.82595C15.4685 9.82595 15.624 9.67111 15.7018 9.67111C15.7018 9.67111 17.335 9.82595 17.6202 9.6195C17.6202 9.6195 17.8794 9.56788 17.9312 9.6195C17.9312 9.6195 18.1646 9.82595 18.1646 9.92917C18.1646 9.92917 18.1386 10.084 17.8535 9.98079C17.8535 9.98079 16.0129 10.0066 15.9092 10.0066C15.9351 10.0066 15.4166 10.1098 15.4685 9.82595Z" stroke="black" stroke-width="0.0997417"/>
<path d="M15.6768 10.3419C15.6768 10.3419 15.6768 10.2129 15.9101 10.2129L18.2173 10.1871C18.2173 10.1871 18.4247 10.2903 18.4247 9.90322C18.4247 9.90322 18.5025 8.12257 18.5284 6.16128C18.5284 5.56773 18.5543 4.97418 18.5284 4.40644C18.5284 4.40644 18.4765 4.17418 18.4247 4.12257C18.4247 4.12257 18.4247 3.86451 18.7098 3.96773C18.7098 3.96773 18.9432 3.99354 18.8913 4.35483L18.9172 4.92257C18.9172 4.92257 18.8654 5.18064 19.3061 5.10322C19.3061 5.10322 19.7468 5.18064 19.7727 5.33547C19.7727 5.33547 19.9023 5.67096 19.3839 5.61934H18.995C18.995 5.61934 18.8395 5.72257 18.8913 5.90322L18.7876 8.30322C18.7876 8.30322 18.7617 8.71612 19.1505 8.69031C19.1505 8.69031 19.5653 8.66451 19.6431 8.79354C19.6431 8.79354 19.9283 9.20644 19.3061 9.18064C19.3061 9.18064 18.9172 9.15483 18.8395 9.23225C18.8395 9.23225 18.7617 9.30967 18.7358 10.0839C18.7358 10.0839 18.7617 10.5484 18.4247 10.4968C18.4247 10.4968 16.1434 10.5226 15.936 10.471C15.936 10.471 15.7286 10.5226 15.6768 10.3419Z" fill="white"/>
<path d="M12.7465 3.91619L12.6947 9.1549C12.6947 9.1549 12.6687 9.38716 13.0835 9.43877C13.0835 9.43877 13.5501 9.49038 13.6798 9.43877C13.6798 9.43877 13.9908 9.41296 14.7945 9.46458C14.7945 9.46458 15.0019 9.67103 15.0019 9.41296C15.0019 9.41296 15.1315 5.18071 15.0796 4.27748C15.0796 4.27748 15.0537 3.89038 14.7945 3.89038C14.7945 3.89038 13.5501 3.99361 13.4464 3.89038L12.9539 3.76135C12.902 3.76135 12.7206 3.78716 12.7465 3.91619Z" fill="white"/>
<path d="M15.3132 4.17412C15.3132 4.17412 15.2614 6.62573 15.2873 6.72896L15.2614 8.79348L15.1836 9.51606C15.1836 9.51606 15.2873 9.67089 15.3651 9.56767C15.3651 9.56767 15.8835 9.43864 16.2205 9.49025C16.2205 9.49025 17.2834 9.59347 17.4908 9.41283C17.4908 9.41283 17.6464 9.49025 17.6982 9.23219C17.6982 9.23219 17.75 4.66444 17.7241 4.58702C17.7241 4.58702 17.776 3.94186 17.75 3.86444C17.75 3.86444 17.7241 3.70961 17.4649 3.83864C17.4649 3.83864 17.4908 3.96767 15.9354 3.91606C15.9354 3.91606 15.3651 3.91606 15.3132 4.17412Z" fill="white"/>
<path d="M17.9322 4.09689L17.9062 9.25818C17.9062 9.25818 18.0359 9.7227 18.2433 9.67108C18.2433 9.67108 18.2692 9.56786 18.2951 9.41302L18.3729 4.50979C18.3729 4.48399 18.2173 3.70979 17.9322 4.09689Z" fill="white"/>
<path d="M17.9322 4.09689L17.9062 9.25818C17.9062 9.25818 18.0359 9.7227 18.2433 9.67108C18.2433 9.67108 18.2692 9.56786 18.2951 9.41302L18.3729 4.50979C18.3729 4.48399 18.2173 3.70979 17.9322 4.09689Z" stroke="black" stroke-width="0.0997417"/>
<path d="M15.9098 5.64507C15.8579 5.51604 16.1949 5.49023 16.1949 5.49023L16.3505 5.51604C16.4542 5.49023 16.5838 5.54185 16.5838 5.54185C16.6875 5.72249 16.506 5.82572 16.506 5.82572L16.4542 6.05798C16.4282 6.23862 16.4542 7.78701 16.4542 7.78701C16.4801 7.86443 16.6097 8.01927 16.6097 8.01927C16.6097 8.17411 16.4282 8.12249 16.4282 8.12249L15.9616 8.1483C15.8061 8.12249 15.8579 7.96765 15.8579 7.96765C16.0134 7.89023 16.0653 7.58056 16.0653 7.58056V5.95475L15.9098 5.64507Z" fill="#1E1E1E"/>
<path d="M13.7059 7.16787L13.68 7.684L13.8355 7.91625C13.9392 8.04529 13.7578 8.14851 13.7578 8.14851L13.2393 8.0969C13.1356 8.04529 13.2393 7.89045 13.2393 7.89045C13.3689 7.81303 13.3948 7.60658 13.3948 7.60658L13.3689 6.65174L13.3948 5.95496C13.3948 5.87754 13.2652 5.72271 13.2652 5.72271C13.1615 5.6969 13.1875 5.56787 13.1875 5.56787C13.2134 5.49045 13.4985 5.54206 13.4985 5.54206H14.1985C14.8466 5.74851 14.7688 6.23883 14.7688 6.23883C14.8206 6.70335 14.3022 6.9098 14.3022 6.9098L14.2762 7.16787L14.7429 7.91625C14.8206 7.99367 14.8206 8.04529 14.8206 8.04529C14.7429 8.22593 14.4836 8.04529 14.4836 8.04529L13.8615 7.11625C13.8096 7.03883 13.7059 7.16787 13.7059 7.16787ZM13.7318 5.87754C13.7578 6.23883 13.7578 6.72916 13.7578 6.72916C14.0689 6.96142 14.2503 6.62593 14.2503 6.62593C14.6651 6.23883 14.2503 5.87754 14.1726 5.77432C14.0948 5.67109 13.7837 5.74851 13.7837 5.74851L13.7318 5.87754Z" fill="#1E1E1E"/>
<path d="M10.2835 13.5161C10.2835 13.5161 10.3872 13.4645 10.439 13.3871C10.439 13.3871 10.7761 13.3613 10.8279 13.3096L11.9167 13.3871C11.9167 13.3871 12.9796 13.4645 13.4462 13.129C13.4462 13.129 13.6018 13.129 13.7314 13.1806C13.7314 13.1806 13.9647 13.2322 14.0165 13.3355L14.6387 13.3096C14.6387 13.3096 15.0016 13.4129 14.9757 13.6451V13.929C14.9757 13.929 14.8979 14.5226 15.0794 14.5484H15.546C15.546 14.5484 15.9349 14.729 15.883 14.9613C15.883 14.9613 15.909 15.2967 15.546 15.3484C15.546 15.3484 15.209 15.4516 15.0794 15.4258C15.0794 15.4258 14.9757 15.5806 14.9498 15.7613L14.9239 17.9032C14.9239 17.9032 14.8979 18.1355 15.235 18.1096C15.235 18.1096 15.7534 18.058 15.883 18.3419C15.883 18.3419 16.0127 18.8064 15.7534 18.8838L15.546 18.9871L15.1313 19.0645C15.1313 19.0645 14.9498 19.0903 14.9239 19.4V19.9677C14.9239 19.9677 14.9498 20.3548 14.6387 20.3548L14.1721 20.3806C14.1721 20.3806 14.0684 20.4838 13.8351 20.4064C13.8351 20.4064 11.0353 20.458 10.9575 20.4322L10.6205 20.4838C10.6205 20.4838 10.2576 20.8193 9.97242 20.5613L9.73911 20.3806C9.73911 20.3806 9.58357 20.4064 9.50579 20.4064C9.42802 20.3806 6.42086 20.4322 6.42086 20.4322C6.42086 20.4322 5.77277 20.5096 5.72092 20.2774C5.72092 20.2774 5.64315 19.4516 5.66907 19.3484C5.66907 19.3484 5.66907 19.1161 5.51353 19.0903C5.51353 19.0903 4.86544 19.0645 4.86544 18.9871C4.86544 18.9871 4.52843 18.7548 4.63212 18.4967C4.63212 18.4967 4.73582 18.1613 5.09875 18.1355C5.09875 18.1355 5.61723 18.2129 5.61723 18.058C5.61723 18.058 5.64315 17.9548 5.64315 17.8C5.64315 17.8 5.66907 15.8645 5.66907 15.7355C5.66907 15.7355 5.72092 15.4774 5.51353 15.4774C5.51353 15.4774 5.28022 15.5548 5.12467 15.4516C5.12467 15.4516 4.73582 15.4774 4.65805 15.1677C4.65805 15.1677 4.58027 14.9613 4.68397 14.8064C4.68397 14.8064 4.86544 14.4451 5.38391 14.5742C5.38391 14.5742 5.66907 14.6516 5.72092 14.4451L5.695 13.6709C5.695 13.6709 5.61723 13.4645 6.03201 13.3355C6.03201 13.3355 6.55048 13.4903 6.73195 13.2322C6.73195 13.2322 6.91341 12.8709 7.06896 13.129C7.06896 13.129 7.38004 13.4129 8.23553 13.3871C8.23553 13.3871 9.71318 13.2838 9.73911 13.3355C9.73911 13.3355 10.102 13.3871 10.2057 13.4903L10.2835 13.5161Z" fill="#1E1E1E"/>
<path d="M10.2835 13.4901C10.2835 13.4901 10.3872 13.4385 10.439 13.3611C10.439 13.3611 10.7761 13.3353 10.8279 13.2837L11.9167 13.3611C11.9167 13.3611 12.9796 13.4385 13.4462 13.103C13.4462 13.103 13.6018 13.103 13.7314 13.1546C13.7314 13.1546 13.9647 13.2063 14.0165 13.3095L14.6387 13.2837C14.6387 13.2837 15.0016 13.3869 14.9757 13.6192V13.903C14.9757 13.903 14.8979 14.4966 15.0794 14.5224H15.546C15.546 14.5224 15.9349 14.703 15.883 14.9353C15.883 14.9353 15.909 15.2708 15.546 15.3224C15.546 15.3224 15.209 15.4256 15.0794 15.3998C15.0794 15.3998 14.9757 15.5546 14.9498 15.7353L14.9239 17.903C14.9239 17.903 14.8979 18.1353 15.235 18.1095C15.235 18.1095 15.7534 18.0579 15.883 18.3417C15.883 18.3417 16.0127 18.8063 15.7534 18.8837L15.546 18.9869L15.1313 19.0643C15.1313 19.0643 14.9498 19.0901 14.9239 19.3998V19.9675C14.9239 19.9675 14.9498 20.3546 14.6387 20.3546L14.1721 20.3804C14.1721 20.3804 14.0684 20.4837 13.8351 20.4063C13.8351 20.4063 11.0353 20.4579 10.9575 20.4321L10.6205 20.5095C10.6205 20.5095 10.2576 20.845 9.97242 20.5869L9.73911 20.4063C9.73911 20.4063 9.58357 20.4321 9.50579 20.4321C9.42802 20.4063 6.42086 20.4579 6.42086 20.4579C6.42086 20.4579 5.77277 20.5353 5.72092 20.303C5.72092 20.303 5.64315 19.4772 5.66907 19.374C5.66907 19.374 5.66907 19.1417 5.51353 19.1159C5.51353 19.1159 4.86544 19.0901 4.86544 19.0127C4.86544 19.0127 4.52843 18.7546 4.63212 18.5224C4.63212 18.5224 4.73582 18.1869 5.09875 18.1611C5.09875 18.1611 5.61723 18.2385 5.61723 18.0837C5.61723 18.0837 5.64315 17.9804 5.64315 17.8256C5.64315 17.8256 5.66907 15.8901 5.66907 15.7611C5.66907 15.7611 5.72092 15.503 5.51353 15.503C5.51353 15.503 5.28022 15.5804 5.12467 15.4772C5.12467 15.4772 4.73582 15.503 4.65805 15.1933C4.65805 15.1933 4.58027 14.9869 4.68397 14.8321C4.68397 14.8321 4.86544 14.4708 5.38391 14.5998C5.38391 14.5998 5.66907 14.6772 5.72092 14.4708L5.695 13.6966C5.695 13.6966 5.61723 13.4901 6.03201 13.3611C6.03201 13.3611 6.55048 13.5159 6.73195 13.2579C6.73195 13.2579 6.91342 12.8966 7.06896 13.1546C7.06896 13.1546 7.38004 13.4385 8.23553 13.4127C8.23553 13.4127 9.71318 13.3095 9.73911 13.3611C9.73911 13.3611 10.102 13.4127 10.2057 13.5159L10.2835 13.4901Z" stroke="black" stroke-width="0.0947222"/>
<path d="M10.7245 19.9159C10.7245 19.9159 10.9319 19.8127 11.0615 19.8643C11.1911 19.8901 13.1095 19.8385 13.1095 19.8385C13.1095 19.8385 13.9391 19.9159 14.0687 19.7869L14.2761 19.7094C14.2761 19.7094 14.3538 19.6062 14.3538 19.4772C14.3538 19.3482 14.3798 18.9094 14.3798 18.9094L14.4316 18.7546C14.4316 18.7546 14.4057 18.5998 14.4316 14.2385C14.4316 14.2385 14.4835 13.903 14.2761 13.6965C14.2761 13.6965 14.2761 13.5675 14.3538 13.5933C14.4316 13.6191 14.3798 13.6191 14.3798 13.6191C14.3798 13.6191 14.6649 13.5417 14.7168 13.6449C14.7168 13.6449 14.8464 14.032 14.7427 14.2643C14.7427 14.2643 14.7168 14.7288 14.9501 14.7288C14.9501 14.7288 15.0538 14.832 15.2353 14.7804C15.2353 14.7804 15.65 14.832 15.65 14.9611C15.65 14.9611 15.65 15.2449 15.3649 15.1933L14.976 15.2191C14.976 15.2191 14.7168 15.2707 14.7427 15.5804C14.7686 15.8901 14.7168 18.1094 14.7168 18.1094C14.7168 18.1094 14.7168 18.3675 15.1316 18.3675C15.1316 18.3675 15.65 18.3417 15.65 18.4965C15.65 18.4965 15.7797 18.832 15.4167 18.832C15.4167 18.832 14.7168 18.8062 14.7686 19.0127C14.7686 19.0127 14.7168 19.4772 14.6909 19.5546C14.6909 19.5546 14.7686 19.9417 14.6649 19.9933C14.6649 19.9933 14.6131 20.1998 14.1724 20.174C14.1724 20.174 11.3467 20.1482 10.906 20.1998C10.906 20.174 10.6467 20.1482 10.7245 19.9159Z" fill="white"/>
<path d="M10.2062 19.6066C10.2062 19.6066 10.4914 19.6582 10.4914 19.9162C10.4914 20.1743 10.5173 20.3291 10.3359 20.355C10.1803 20.3808 9.99884 20.3291 9.94699 20.1227C9.89515 19.9162 9.97292 19.6582 10.2062 19.6066Z" fill="white"/>
<path d="M10.5429 19.4774C10.5429 19.4774 10.828 19.2709 10.9577 19.3226C10.9577 19.3226 12.4612 19.4258 12.9019 19.3484C13.3686 19.2709 13.0834 19.3226 13.0834 19.3226C13.0834 19.3226 13.4723 19.3226 13.6019 19.1677C13.6019 19.1677 13.7056 19.1419 13.7834 19.2451L14.0167 19.5032C14.0167 19.5032 14.0426 19.658 13.7574 19.658C13.7574 19.658 11.0873 19.658 11.0095 19.6839C10.9836 19.6839 10.491 19.7613 10.5429 19.4774Z" fill="white"/>
<path d="M10.5429 19.4774C10.5429 19.4774 10.828 19.2709 10.9577 19.3226C10.9577 19.3226 12.4612 19.4258 12.9019 19.3484C13.3686 19.2709 13.0834 19.3226 13.0834 19.3226C13.0834 19.3226 13.4723 19.3226 13.6019 19.1677C13.6019 19.1677 13.7056 19.1419 13.7834 19.2451L14.0167 19.5032C14.0167 19.5032 14.0426 19.658 13.7574 19.658C13.7574 19.658 11.0873 19.658 11.0095 19.6839C10.9836 19.6839 10.491 19.7613 10.5429 19.4774Z" stroke="black" stroke-width="0.0997417"/>
<path d="M6.65484 13.6967C6.65484 13.6967 6.75853 13.6967 6.75853 13.9032L6.73261 18.8322C6.73261 18.8322 6.78445 19.1677 6.49929 19.3741C6.49929 19.3741 6.34375 19.5548 6.34375 19.2709L6.42152 14.2387C6.3956 14.2128 6.42152 13.8516 6.65484 13.6967Z" fill="white"/>
<path d="M6.65484 13.6967C6.65484 13.6967 6.75853 13.6967 6.75853 13.9032L6.73261 18.8322C6.73261 18.8322 6.78445 19.1677 6.49929 19.3741C6.49929 19.3741 6.34375 19.5548 6.34375 19.2709L6.42152 14.2387C6.3956 14.2128 6.42152 13.8516 6.65484 13.6967Z" stroke="black" stroke-width="0.0997417"/>
<path d="M6.39625 13.7224C6.39625 13.7224 6.18886 14.0837 6.21478 14.1611L6.18886 15.245C6.18886 15.245 6.16293 15.9417 6.18886 16.0192C6.21478 16.0966 6.16293 18.1611 6.16293 18.1611C6.16293 18.1611 6.13701 18.5482 6.16293 18.6772V19.5547C6.16293 19.5547 6.13701 19.9417 6.42217 19.8385C6.42217 19.8385 9.29971 19.7611 9.48118 19.8127C9.48118 19.8127 9.74042 19.8643 9.63672 19.9934C9.63672 19.9934 9.63672 20.0966 9.45525 20.0708C9.45525 20.0708 8.10722 20.1998 6.86288 20.1482C6.86288 20.1482 6.03331 20.1998 5.98147 20.0966C5.98147 20.0966 5.85185 20.0708 5.85185 19.6063C5.85185 19.6063 5.85185 19.1676 5.82592 19.0901C5.82592 19.0901 5.85185 18.8579 5.43707 18.8063C5.43707 18.8063 4.86674 18.9095 4.84082 18.574C4.84082 18.574 4.91859 18.3417 5.48891 18.3676C5.48891 18.3676 5.9037 18.445 5.82592 18.1095L5.87777 15.6837C5.87777 15.6837 5.92962 15.2708 5.64446 15.245C5.64446 15.245 5.38522 15.2192 5.30745 15.2708C5.30745 15.2708 4.84082 15.2708 4.86674 14.9869C4.86674 14.9869 5.02229 14.703 5.51484 14.7547C5.51484 14.7547 5.87777 14.8321 5.90369 14.4192C5.90369 14.4192 5.87777 13.5934 6.08516 13.5417C6.08516 13.5934 6.49994 13.5934 6.39625 13.7224Z" fill="white"/>
<path d="M6.88848 19.1161C6.88848 19.1161 7.12179 19.3483 7.48473 19.3483L9.71417 19.3742C9.71417 19.3742 9.97341 19.4 9.94749 19.529C9.94749 19.529 9.92156 19.7354 9.61048 19.658L6.9144 19.6322L6.62924 19.658C6.62924 19.658 6.42185 19.6322 6.73294 19.2451L6.88848 19.1161Z" fill="white"/>
<path d="M6.88848 19.1161C6.88848 19.1161 7.12179 19.3483 7.48473 19.3483L9.71417 19.3742C9.71417 19.3742 9.97341 19.4 9.94749 19.529C9.94749 19.529 9.92156 19.7354 9.61048 19.658L6.9144 19.6322L6.62924 19.658C6.62924 19.658 6.42185 19.6322 6.73294 19.2451L6.88848 19.1161Z" stroke="black" stroke-width="0.0997417"/>
<path d="M13.7578 18.9096C13.7578 18.9096 13.9652 19.2967 14.043 19.3483C14.043 19.3483 14.2244 19.5547 14.1726 19.1934L14.1985 14.4967C14.1985 14.4967 14.1467 14.3418 14.1985 14.0837L13.9911 13.7225C13.9911 13.7225 13.7837 13.5676 13.7837 13.8257L13.7578 18.8321V18.9096Z" fill="white"/>
<path d="M13.7578 18.9096C13.7578 18.9096 13.9652 19.2967 14.043 19.3483C14.043 19.3483 14.2244 19.5547 14.1726 19.1934L14.1985 14.4967C14.1985 14.4967 14.1467 14.3418 14.1985 14.0837L13.9911 13.7225C13.9911 13.7225 13.7837 13.5676 13.7837 13.8257L13.7578 18.8321V18.9096Z" stroke="black" stroke-width="0.0997417"/>
<path d="M10.1281 16.6645C10.1281 16.6645 10.154 17.0516 10.1022 17.4387C10.0762 17.6451 10.1799 18.6 10.0762 19.0903C10.0762 19.0903 10.0503 19.2451 9.7133 19.1161C9.7133 19.1161 7.61347 19.1677 7.56162 19.0903C7.56162 19.0903 6.9913 19.1161 6.93945 18.8064C6.93945 18.8064 7.01722 16.5612 6.96538 16.4838C6.96538 16.4838 6.93945 15.2709 6.96538 15.1419C6.96538 15.1419 7.01722 14.0064 6.9913 13.8774C6.9913 13.8774 7.01722 13.6193 6.96538 13.4903C6.96538 13.4903 6.96538 13.3354 7.25054 13.4129C7.25054 13.4129 7.35423 13.5935 7.89863 13.5161C7.89863 13.5161 8.28749 13.5677 8.67635 13.5419C8.67635 13.5419 9.50591 13.4645 9.7133 13.5419C9.7133 13.5419 10.0503 13.4645 10.1281 13.8258L10.1022 14.8322L10.2059 15.1677L10.3095 15.0903L10.3614 14.8322L10.3873 13.7483C10.3873 13.7483 10.4651 13.5419 10.7243 13.5161C10.7243 13.5161 11.1391 13.4645 11.191 13.4903C11.2428 13.5161 12.1501 13.5677 12.3834 13.5161C12.6168 13.4645 12.6686 13.6709 13.4204 13.3096C13.4204 13.3096 13.6278 13.3354 13.6278 13.4645C13.6278 13.4645 13.55 14.858 13.6278 15.1161C13.6278 15.1161 13.6278 17.6709 13.5759 17.8516L13.6019 18.6774C13.6019 18.6774 13.6278 19.0387 13.0575 19.0645C13.0575 19.0645 13.4204 19.1161 11.165 19.0387C11.165 19.0387 10.8021 19.0129 10.4132 19.1935C10.4132 19.1935 10.3355 19.1677 10.3355 18.9612C10.3355 18.9612 10.4132 18.187 10.3355 17.4387L10.3095 16.6129L10.1281 16.6645Z" fill="white"/>
<path d="M8.6513 15.5031C8.6513 15.5031 8.70315 16.716 8.6513 16.8708L8.62537 17.1289C8.62537 17.1289 8.70315 17.3095 8.78092 17.3611C8.78092 17.3611 8.85869 17.5934 8.67722 17.5676C8.67722 17.5676 8.26244 17.5418 8.15875 17.5418C8.15875 17.5418 7.92543 17.5418 8.15875 17.2579C8.15875 17.2579 8.23652 17.1547 8.21059 16.845C8.21059 16.845 8.21059 15.4773 8.23652 15.3998C8.23652 15.3998 8.26244 15.2192 8.15875 15.1676L7.95136 15.1934L7.71804 15.4257C7.71804 15.4257 7.6662 15.6579 7.5625 15.3998V15.2708L7.71804 14.8837L7.82174 14.8579C7.82174 14.8579 7.97728 14.9611 8.1069 14.9869H8.88461L9.16977 14.8579C9.16977 14.8579 9.27347 14.8837 9.24755 15.0127C9.24755 15.0127 9.29939 15.3998 9.092 15.4257C9.092 15.4257 8.96238 15.374 8.88461 15.1934C8.88461 15.245 8.67722 15.1418 8.6513 15.5031Z" fill="#1E1E1E"/>
<path d="M12.2805 15.0644C12.2805 15.0644 11.6584 15.0128 11.6325 15.6838C11.6325 15.6838 11.5547 16.1483 12.2546 16.4322C12.2546 16.4322 12.7731 16.6644 12.7213 16.9741C12.7213 16.9741 12.6435 17.5418 12.125 17.258C12.125 17.258 11.8658 17.1289 11.8917 16.9741C11.8917 16.9741 11.8139 16.7934 11.7102 16.8193C11.7102 16.8193 11.6065 16.8451 11.6584 17.387C11.6584 17.387 11.6584 17.5934 11.8917 17.387L12.0213 17.4128C12.0213 17.4128 12.462 17.7741 12.8509 17.3354C12.8509 17.3354 13.2657 16.9483 12.9546 16.5096C12.9546 16.5096 12.7472 16.1741 12.3583 16.0193C12.3583 16.0193 11.9954 15.8644 11.9176 15.5805C11.9176 15.5805 12.0213 15.0902 12.462 15.3483C12.462 15.3483 12.6176 15.5547 12.7213 15.5805C12.7213 15.5805 12.8509 15.5805 12.8249 15.2967L12.799 15.0644C12.799 15.0644 12.7731 14.8838 12.5398 15.0644C12.5398 15.0644 12.3324 15.1418 12.2805 15.0644Z" fill="#1E1E1E"/>
<path d="M10.2837 14.729C10.3874 14.8065 10.4133 14.9871 10.4133 14.9871C10.7503 15.8645 11.0096 17.1032 11.0096 17.1032C11.0873 17.2581 11.2429 17.3871 11.2429 17.3871C11.528 17.4903 11.2429 17.5677 11.2429 17.5677C11.1392 17.6194 10.7503 17.5419 10.7503 17.5419C10.5429 17.5161 10.6466 17.4387 10.6466 17.4387C10.7244 17.3613 10.6726 17.0258 10.6726 17.0258C10.6466 16.8968 10.517 16.6903 10.517 16.6903C10.4392 16.6645 10.3355 16.7936 10.3355 16.7936C10.3355 16.7936 10.1541 16.871 10.1282 16.7936C10.1022 16.7161 9.99854 16.6645 9.99854 16.6645C9.79115 16.6645 9.71338 17.1548 9.71338 17.1548C9.81707 17.5677 9.71338 17.4903 9.71338 17.4903C9.60968 17.6194 9.2986 17.5161 9.2986 17.5161C9.14306 17.4903 9.24675 17.3613 9.24675 17.3613C9.42822 17.3355 9.48006 17.129 9.48006 17.129C9.55783 17.0258 10.0763 14.8839 10.0763 14.8839C10.1282 14.8323 10.1541 14.6516 10.2837 14.729ZM10.0245 15.8129C9.99854 15.8903 9.89484 16.3548 9.89484 16.3548L9.99854 16.5097C9.99854 16.5097 10.2578 16.5355 10.3615 16.5355C10.4652 16.5355 10.4652 16.4581 10.4652 16.3806C10.4652 16.3032 10.2837 15.8129 10.2837 15.8129L10.2059 15.7097L10.0245 15.8129Z" fill="#1E1E1E"/>
<path d="M5.8258 10.7807C5.8258 10.7807 5.64434 11.3484 4.8407 10.7549L2.09278 10.7033C2.09278 10.7033 1.72984 10.8065 1.678 10.4452C1.678 10.4452 1.75577 9.6968 1.70392 9.61938C1.70392 9.61938 1.72984 9.41293 1.36691 9.41293C1.36691 9.41293 0.822512 9.49035 0.796588 9.00003C0.796588 9.00003 0.692893 8.4839 1.47061 8.4839C1.47061 8.4839 1.70392 8.58712 1.72984 8.27744C1.72984 8.27744 1.70392 6.16132 1.70392 5.98067C1.70392 5.98067 1.78169 5.77422 1.39284 5.74841C1.39284 5.74841 0.848436 5.85164 0.796588 5.49035C0.796588 5.49035 0.770664 4.94841 1.1336 4.92261C1.1336 4.92261 1.5743 4.94841 1.65207 4.84519C1.65207 4.84519 1.75577 4.8968 1.72984 4.5097L1.75577 3.83874C1.75577 3.83874 1.80762 3.65809 2.09278 3.6839C2.09278 3.6839 2.61125 3.7097 2.6631 3.65809C2.6631 3.65809 2.7668 3.50325 2.81864 3.45164C2.81864 3.45164 3.07788 3.42583 3.12973 3.50325C3.12973 3.50325 3.51859 3.76132 5.02216 3.65809C5.02216 3.65809 5.25548 3.65809 5.30733 3.73551C5.30733 3.73551 5.59249 3.94196 5.74803 3.7097C5.74803 3.7097 5.98135 3.65809 6.73313 3.6839C6.73313 3.6839 7.53677 3.89035 8.08117 3.45164L8.26264 3.47745C8.26264 3.47745 8.49595 3.86454 8.6515 3.73551C8.6515 3.73551 9.14405 3.6839 9.22182 3.78712C9.22182 3.78712 9.37736 4.01938 9.29959 4.66454C9.29959 4.66454 9.1959 4.94841 9.68845 4.94841C9.68845 4.94841 10.2328 4.84519 10.1551 5.36132C10.1551 5.36132 10.3106 5.92906 9.40329 5.85164C9.40329 5.85164 9.29959 6.00648 9.29959 6.13551C9.29959 6.13551 9.27367 7.99357 9.27367 8.20003C9.27367 8.20003 9.24774 8.4839 9.66252 8.4839C9.66252 8.4839 10.181 8.45809 10.2069 8.92261C10.2069 8.92261 10.2847 9.54196 9.50698 9.43874C9.50698 9.43874 9.27367 9.46454 9.24774 9.61938L9.19589 10.4452C9.19589 10.4452 9.22182 10.8581 8.75519 10.7549C8.67742 10.7549 6.18874 10.8065 5.98135 10.7291C5.98135 10.7291 5.87765 10.7033 5.8258 10.7807Z" fill="#1E1E1E"/>
<path d="M5.8258 10.7807C5.8258 10.7807 5.64434 11.3484 4.8407 10.7549L2.09278 10.7033C2.09278 10.7033 1.72984 10.8065 1.678 10.4452C1.678 10.4452 1.75577 9.6968 1.70392 9.61938C1.70392 9.61938 1.72984 9.41293 1.36691 9.41293C1.36691 9.41293 0.822512 9.49035 0.796588 9.00003C0.796588 9.00003 0.692893 8.4839 1.47061 8.4839C1.47061 8.4839 1.70392 8.58712 1.72984 8.27744C1.72984 8.27744 1.70392 6.16132 1.70392 5.98067C1.70392 5.98067 1.78169 5.77422 1.39284 5.74841C1.39284 5.74841 0.848436 5.85164 0.796588 5.49035C0.796588 5.49035 0.770664 4.94841 1.1336 4.92261C1.1336 4.92261 1.5743 4.94841 1.65207 4.84519C1.65207 4.84519 1.75577 4.8968 1.72984 4.5097L1.75577 3.83874C1.75577 3.83874 1.80762 3.65809 2.09278 3.6839C2.09278 3.6839 2.61125 3.7097 2.6631 3.65809C2.6631 3.65809 2.7668 3.50325 2.81864 3.45164C2.81864 3.45164 3.07788 3.42583 3.12973 3.50325C3.12973 3.50325 3.51859 3.76132 5.02217 3.65809C5.02217 3.65809 5.25548 3.65809 5.30733 3.73551C5.30733 3.73551 5.59249 3.94196 5.74803 3.7097C5.74803 3.7097 5.98135 3.65809 6.73313 3.6839C6.73313 3.6839 7.53677 3.89035 8.08117 3.45164L8.26264 3.47745C8.26264 3.47745 8.49595 3.86454 8.6515 3.73551C8.6515 3.73551 9.14405 3.6839 9.22182 3.78712C9.22182 3.78712 9.37736 4.01938 9.29959 4.66454C9.29959 4.66454 9.19589 4.94841 9.68845 4.94841C9.68845 4.94841 10.2328 4.84519 10.1551 5.36132C10.1551 5.36132 10.3106 5.92906 9.40328 5.85164C9.40328 5.85164 9.29959 6.00648 9.29959 6.13551C9.29959 6.13551 9.27367 7.99357 9.27367 8.20003C9.27367 8.20003 9.24774 8.4839 9.66252 8.4839C9.66252 8.4839 10.181 8.45809 10.2069 8.92261C10.2069 8.92261 10.2847 9.54196 9.50698 9.43874C9.50698 9.43874 9.27367 9.46454 9.24774 9.61938L9.19589 10.4452C9.19589 10.4452 9.22182 10.8581 8.75519 10.7549C8.67742 10.7549 6.18874 10.8065 5.98135 10.7291C5.98135 10.7291 5.87765 10.7033 5.8258 10.7807Z" stroke="black" stroke-width="0.0947222"/>
<path d="M2.74042 4.04501C2.74042 4.04501 2.76634 4.38049 2.76634 4.45791C2.76634 4.53533 2.7145 9.18049 2.7145 9.18049C2.7145 9.18049 2.76634 9.54178 2.45526 9.72243C2.45526 9.72243 2.37749 9.74823 2.35156 9.51597L2.37749 4.61275C2.40341 4.61275 2.42933 4.0192 2.74042 4.04501Z" fill="white"/>
<path d="M2.74042 4.04501C2.74042 4.04501 2.76634 4.38049 2.76634 4.45791C2.76634 4.53533 2.7145 9.18049 2.7145 9.18049C2.7145 9.18049 2.76634 9.54178 2.45526 9.72243C2.45526 9.72243 2.37749 9.74823 2.35156 9.51597L2.37749 4.61275C2.40341 4.61275 2.42933 4.0192 2.74042 4.04501Z" stroke="black" stroke-width="0.0997417"/>
<path d="M2.19572 9.77406C2.19572 9.77406 2.22164 5.18051 2.22164 5.07729C2.19572 4.99987 2.22164 5.15471 2.22164 5.15471C2.22164 5.15471 2.16979 4.35471 2.37718 4.01922C2.37718 4.01922 2.29941 3.73535 1.93648 4.09664V4.76761C1.93648 4.76761 1.93648 5.15471 1.59947 5.1289C1.59947 5.1289 1.21061 5.10309 1.02915 5.28374C1.02915 5.28374 0.925452 5.64503 1.31431 5.56761C1.31431 5.56761 1.91056 5.56761 1.93648 5.79987L1.91056 8.27729C1.91056 8.27729 2.04017 8.69019 1.57355 8.69019C1.57355 8.69019 1.02915 8.66438 1.02915 8.99987C1.02915 8.99987 1.13284 9.28374 1.62539 9.20632C1.62539 9.20632 1.9624 9.28374 1.9624 9.59341V10.2128C1.9624 10.2128 1.93648 10.4708 2.24756 10.4708H4.7881C4.7881 10.4708 4.91771 10.4966 4.91771 10.316C4.91771 10.316 4.89179 10.187 4.71032 10.187L2.58457 10.1612C2.58457 10.1612 2.22164 10.2644 2.19572 9.77406Z" fill="white"/>
<path d="M2.63691 9.80007C2.63691 9.80007 2.55914 10.0323 2.81838 9.98071H4.50343L4.97005 10.0839C4.97005 10.0839 5.43668 9.98071 4.97005 9.69684C4.97005 9.69684 3.46647 9.72265 3.33686 9.67104C3.33686 9.67104 3.02577 9.59362 2.948 9.56781C2.948 9.59362 2.79246 9.5162 2.63691 9.80007Z" fill="white"/>
<path d="M2.63691 9.80007C2.63691 9.80007 2.55914 10.0323 2.81838 9.98071H4.50343L4.97005 10.0839C4.97005 10.0839 5.43668 9.98071 4.97005 9.69684C4.97005 9.69684 3.46647 9.72265 3.33686 9.67104C3.33686 9.67104 3.02577 9.59362 2.948 9.56781C2.948 9.59362 2.79246 9.5162 2.63691 9.80007Z" stroke="black" stroke-width="0.0997417"/>
<path d="M5.43611 10.0322C5.43611 10.0322 5.12502 10.0322 5.15095 10.4451C5.15095 10.4451 5.17687 10.7548 5.51388 10.7548C5.51388 10.7548 5.79904 10.7032 5.77312 10.3677C5.77312 10.3677 5.59165 9.95477 5.43611 10.0322Z" fill="white"/>
<path d="M5.66966 9.85158C5.66966 9.85158 5.82521 9.69674 5.90298 9.69674C5.90298 9.69674 7.53618 9.85158 7.82134 9.64513C7.82134 9.64513 8.05465 9.59352 8.13242 9.64513C8.13242 9.64513 8.36574 9.85158 8.36574 9.95481C8.36574 9.95481 8.33981 10.1096 8.05465 10.0322C8.05465 10.0322 6.18814 10.058 6.11037 10.058C6.13629 10.0322 5.61782 10.1613 5.66966 9.85158Z" fill="white"/>
<path d="M5.66966 9.85158C5.66966 9.85158 5.82521 9.69674 5.90298 9.69674C5.90298 9.69674 7.53618 9.85158 7.82134 9.64513C7.82134 9.64513 8.05465 9.59352 8.13242 9.64513C8.13242 9.64513 8.36574 9.85158 8.36574 9.95481C8.36574 9.95481 8.33981 10.1096 8.05465 10.0322C8.05465 10.0322 6.18814 10.058 6.11037 10.058C6.13629 10.0322 5.61782 10.1613 5.66966 9.85158Z" stroke="black" stroke-width="0.0997417"/>
<path d="M5.92871 10.3419C5.92871 10.3419 5.92871 10.2129 6.16202 10.2129L8.46924 10.1871C8.46924 10.1871 8.67663 10.2903 8.67663 9.90322C8.67663 9.90322 8.7544 8.12257 8.78033 6.16128C8.78033 5.56773 8.80625 4.97418 8.78033 4.40644C8.78033 4.40644 8.72848 4.17418 8.67663 4.12257C8.67663 4.12257 8.67663 3.86451 8.96179 3.96773C8.96179 3.96773 9.19511 3.99354 9.14326 4.35483L9.16918 4.92257C9.16918 4.92257 9.11734 5.15483 9.55804 5.10322C9.55804 5.10322 9.99874 5.15483 10.0247 5.33547C10.0247 5.33547 10.1543 5.67096 9.63581 5.61934H9.24696C9.24696 5.61934 9.09141 5.72257 9.14326 5.90322L9.09141 8.27741C9.09141 8.27741 9.06549 8.69031 9.45435 8.66451C9.45435 8.66451 9.86913 8.6387 9.9469 8.76773C9.9469 8.76773 10.2321 9.18063 9.60989 9.15483C9.60989 9.15483 9.22103 9.12902 9.14326 9.20644C9.14326 9.20644 9.09141 9.28386 9.03957 10.0581C9.03957 10.0581 9.06549 10.5226 8.72848 10.471C8.72848 10.471 6.44719 10.4968 6.2398 10.4452C6.18795 10.471 5.95463 10.5226 5.92871 10.3419Z" fill="white"/>
<path d="M2.97307 3.91619L2.92122 9.1549C2.92122 9.1549 2.89529 9.38716 3.31008 9.43877C3.31008 9.43877 3.7767 9.49038 3.90632 9.43877C3.90632 9.43877 4.21741 9.41296 5.02104 9.46458C5.02104 9.46458 5.22844 9.67103 5.22844 9.41296C5.22844 9.41296 5.35805 5.18071 5.30621 4.27748C5.30621 4.27748 5.28028 3.89038 5.02104 3.89038C5.02104 3.89038 3.7767 3.99361 3.67301 3.89038L3.18046 3.76135C3.15453 3.76135 2.97307 3.78716 2.97307 3.91619Z" fill="white"/>
<path d="M8.18413 4.09689L8.1582 9.25818C8.1582 9.25818 8.28782 9.7227 8.49521 9.67108C8.49521 9.67108 8.52114 9.56786 8.54706 9.41302L8.62483 4.50979C8.62483 4.48399 8.46929 3.70979 8.18413 4.09689Z" fill="white"/>
<path d="M8.18413 4.09689L8.1582 9.25818C8.1582 9.25818 8.28782 9.7227 8.49521 9.67108C8.49521 9.67108 8.52114 9.56786 8.54706 9.41302L8.62483 4.50979C8.62483 4.48399 8.46929 3.70979 8.18413 4.09689Z" stroke="black" stroke-width="0.0997417"/>
<path d="M5.56614 4.14849C5.56614 4.14849 5.51429 6.6001 5.54022 6.70333L5.51429 8.76784L5.43652 9.49042C5.43652 9.49042 5.54022 9.64526 5.61799 9.54203C5.61799 9.54203 6.13647 9.413 6.47347 9.46461C6.47347 9.46461 7.53635 9.56784 7.74374 9.3872C7.74374 9.3872 7.89928 9.46461 7.95113 9.20655C7.95113 9.20655 8.0289 4.63881 7.97705 4.56139C7.97705 4.56139 8.05483 3.91623 8.00298 3.83881C8.00298 3.83881 7.97705 3.68397 7.71782 3.813C7.71782 3.813 7.74374 3.94203 6.18831 3.89042C6.18831 3.89042 5.59207 3.89042 5.56614 4.14849Z" fill="white"/>
<path d="M5.07287 5.64521L4.91733 5.95488C4.91733 5.95488 4.5544 7.52908 4.37293 7.86456C4.37293 7.86456 4.34701 8.20005 4.06185 7.94198C4.06185 7.94198 3.41375 5.92908 3.38783 5.87746L3.18044 5.72263C3.18044 5.72263 3.05082 5.54198 3.28413 5.51617L3.88038 5.54198C3.88038 5.54198 4.08777 5.69682 3.80261 5.87746C3.80261 5.87746 3.82853 6.13553 4.19146 7.14198C4.19146 7.14198 4.29516 7.52908 4.39885 7.24521L4.73586 6.08392L4.63217 5.74843C4.63217 5.74843 4.52847 5.59359 4.68402 5.56779C4.68402 5.56779 5.02103 5.51617 5.07287 5.64521Z" fill="#1E1E1E"/>
<path d="M6.00668 5.92901L5.98076 7.65804L5.92891 7.78707C5.92891 7.78707 5.77337 7.99352 5.87706 8.01933C5.87706 8.01933 5.72152 8.12256 6.91401 8.12256C6.91401 8.12256 7.38064 8.19998 7.25102 7.60643C7.25102 7.60643 7.19918 7.39998 7.04363 7.70965C7.04363 7.70965 6.99179 7.96772 6.39554 7.8903C6.39554 7.8903 6.26592 7.78707 6.26592 7.65804V6.93546C6.26592 6.93546 6.24 6.75481 6.52516 6.78062C6.52516 6.78062 6.83624 6.98707 6.88809 6.88385C6.88809 6.88385 6.99179 6.62578 6.88809 6.47094C6.88809 6.47094 6.73255 6.44514 6.73255 6.52256C6.73255 6.52256 6.62885 6.72901 6.34369 6.59998C6.34369 6.59998 6.21407 6.34191 6.29184 6.13546C6.29184 6.13546 6.26592 5.72256 6.52516 5.74836C6.52516 5.74836 6.86217 5.82578 6.88809 5.9032C6.88809 5.9032 6.96586 6.10965 7.04363 5.87739L6.96586 5.59352C6.96586 5.59352 6.91401 5.4903 6.83624 5.5161C6.83624 5.5161 6.29184 5.59352 6.21407 5.54191L5.82522 5.56772C5.82522 5.56772 5.77337 5.72256 5.95483 5.79998C5.95483 5.82578 6.00668 5.85159 6.00668 5.92901Z" fill="#1E1E1E"/>
</svg>
