<svg width="25" height="24" viewBox="0 0 25 24" fill="none" xmlns="http://www.w3.org/2000/svg">
<g clip-path="url(#clip0_15243_16595)">
<path d="M6.5 12C6.5 12.9 6.67917 13.7292 7.0375 14.4875C7.39583 15.2458 7.88333 15.9 8.5 16.45V15C8.5 14.7167 8.59583 14.4792 8.7875 14.2875C8.97917 14.0958 9.21667 14 9.5 14C9.78333 14 10.0208 14.0958 10.2125 14.2875C10.4042 14.4792 10.5 14.7167 10.5 15V19C10.5 19.2833 10.4042 19.5208 10.2125 19.7125C10.0208 19.9042 9.78333 20 9.5 20H5.5C5.21667 20 4.97917 19.9042 4.7875 19.7125C4.59583 19.5208 4.5 19.2833 4.5 19C4.5 18.7167 4.59583 18.4792 4.7875 18.2875C4.97917 18.0958 5.21667 18 5.5 18H7.225C6.375 17.2667 5.70833 16.3833 5.225 15.35C4.74167 14.3167 4.5 13.2 4.5 12C4.5 10.4167 4.9125 8.99167 5.7375 7.725C6.5625 6.45833 7.63333 5.49167 8.95 4.825C9.18333 4.69167 9.425 4.6875 9.675 4.8125C9.925 4.9375 10.0917 5.13333 10.175 5.4C10.2583 5.66667 10.2458 5.925 10.1375 6.175C10.0292 6.425 9.85833 6.61667 9.625 6.75C8.69167 7.26667 7.9375 7.9875 7.3625 8.9125C6.7875 9.8375 6.5 10.8667 6.5 12ZM15.5 20C14.6667 20 13.9583 19.7083 13.375 19.125C12.7917 18.5417 12.5 17.8333 12.5 17C12.5 16.2 12.775 15.5125 13.325 14.9375C13.875 14.3625 14.55 14.0583 15.35 14.025C15.6333 13.425 16.0542 12.9375 16.6125 12.5625C17.1708 12.1875 17.8 12 18.5 12C19.3833 12 20.1458 12.2875 20.7875 12.8625C21.4292 13.4375 21.8167 14.15 21.95 15C22.65 15 23.25 15.2417 23.75 15.725C24.25 16.2083 24.5 16.7917 24.5 17.475C24.5 18.175 24.2583 18.7708 23.775 19.2625C23.2917 19.7542 22.7 20 22 20H15.5ZM16.5 7.55V9C16.5 9.28333 16.4042 9.52083 16.2125 9.7125C16.0208 9.90417 15.7833 10 15.5 10C15.2167 10 14.9792 9.90417 14.7875 9.7125C14.5958 9.52083 14.5 9.28333 14.5 9V5C14.5 4.71667 14.5958 4.47917 14.7875 4.2875C14.9792 4.09583 15.2167 4 15.5 4H19.5C19.7833 4 20.0208 4.09583 20.2125 4.2875C20.4042 4.47917 20.5 4.71667 20.5 5C20.5 5.28333 20.4042 5.52083 20.2125 5.7125C20.0208 5.90417 19.7833 6 19.5 6H17.775C18.325 6.48333 18.8042 7.0375 19.2125 7.6625C19.6208 8.2875 19.9333 8.96667 20.15 9.7C20.2333 9.96667 20.2 10.2083 20.05 10.425C19.9 10.6417 19.6833 10.775 19.4 10.825C19.1167 10.875 18.8625 10.8208 18.6375 10.6625C18.4125 10.5042 18.25 10.2917 18.15 10.025C17.9833 9.54167 17.7583 9.09167 17.475 8.675C17.1917 8.25833 16.8667 7.88333 16.5 7.55ZM15.5 18H22C22.1333 18 22.25 17.95 22.35 17.85C22.45 17.75 22.5 17.6333 22.5 17.5C22.5 17.3667 22.45 17.25 22.35 17.15C22.25 17.05 22.1333 17 22 17H20.25V15.75C20.25 15.2667 20.0792 14.8542 19.7375 14.5125C19.3958 14.1708 18.9833 14 18.5 14C18.0167 14 17.6042 14.1708 17.2625 14.5125C16.9208 14.8542 16.75 15.2667 16.75 15.75V16H15.5C15.2167 16 14.9792 16.0958 14.7875 16.2875C14.5958 16.4792 14.5 16.7167 14.5 17C14.5 17.2833 14.5958 17.5208 14.7875 17.7125C14.9792 17.9042 15.2167 18 15.5 18Z" fill="#00797A"/>
</g>
<defs>
<clipPath id="clip0_15243_16595">
<rect width="24" height="24" fill="white" transform="translate(0.5)"/>
</clipPath>
</defs>
</svg>
