<svg width="25" height="24" viewBox="0 0 25 24" fill="none" xmlns="http://www.w3.org/2000/svg">
<path d="M5.5 22C4.95 22 4.47917 21.8042 4.0875 21.4125C3.69583 21.0208 3.5 20.55 3.5 20V8.725C3.2 8.54167 2.95833 8.30417 2.775 8.0125C2.59167 7.72083 2.5 7.38333 2.5 7V4C2.5 3.45 2.69583 2.97917 3.0875 2.5875C3.47917 2.19583 3.95 2 4.5 2H20.5C21.05 2 21.5208 2.19583 21.9125 2.5875C22.3042 2.97917 22.5 3.45 22.5 4V7C22.5 7.38333 22.4083 7.72083 22.225 8.0125C22.0417 8.30417 21.8 8.54167 21.5 8.725V20C21.5 20.55 21.3042 21.0208 20.9125 21.4125C20.5208 21.8042 20.05 22 19.5 22H5.5ZM5.5 9V20H19.5V9H5.5ZM4.5 7H20.5V4H4.5V7ZM10.5 14H14.5C14.7833 14 15.0208 13.9042 15.2125 13.7125C15.4042 13.5208 15.5 13.2833 15.5 13C15.5 12.7167 15.4042 12.4792 15.2125 12.2875C15.0208 12.0958 14.7833 12 14.5 12H10.5C10.2167 12 9.97917 12.0958 9.7875 12.2875C9.59583 12.4792 9.5 12.7167 9.5 13C9.5 13.2833 9.59583 13.5208 9.7875 13.7125C9.97917 13.9042 10.2167 14 10.5 14Z" fill="#00797A"/>
</svg>
