<svg width="25" height="24" viewBox="0 0 25 24" fill="none" xmlns="http://www.w3.org/2000/svg">
<path d="M9.25 18H15.25C15.5333 18 15.7708 17.9042 15.9625 17.7125C16.1542 17.5208 16.25 17.2833 16.25 17C16.25 16.7167 16.1542 16.4792 15.9625 16.2875C15.7708 16.0958 15.5333 16 15.25 16H9.25C8.96667 16 8.72917 16.0958 8.5375 16.2875C8.34583 16.4792 8.25 16.7167 8.25 17C8.25 17.2833 8.34583 17.5208 8.5375 17.7125C8.72917 17.9042 8.96667 18 9.25 18ZM9.25 14H15.25C15.5333 14 15.7708 13.9042 15.9625 13.7125C16.1542 13.5208 16.25 13.2833 16.25 13C16.25 12.7167 16.1542 12.4792 15.9625 12.2875C15.7708 12.0958 15.5333 12 15.25 12H9.25C8.96667 12 8.72917 12.0958 8.5375 12.2875C8.34583 12.4792 8.25 12.7167 8.25 13C8.25 13.2833 8.34583 13.5208 8.5375 13.7125C8.72917 13.9042 8.96667 14 9.25 14ZM6.25 22C5.7 22 5.22917 21.8042 4.8375 21.4125C4.44583 21.0208 4.25 20.55 4.25 20V4C4.25 3.45 4.44583 2.97917 4.8375 2.5875C5.22917 2.19583 5.7 2 6.25 2H13.425C13.6917 2 13.9458 2.05 14.1875 2.15C14.4292 2.25 14.6417 2.39167 14.825 2.575L19.675 7.425C19.8583 7.60833 20 7.82083 20.1 8.0625C20.2 8.30417 20.25 8.55833 20.25 8.825V20C20.25 20.55 20.0542 21.0208 19.6625 21.4125C19.2708 21.8042 18.8 22 18.25 22H6.25ZM13.25 8V4H6.25V20H18.25V9H14.25C13.9667 9 13.7292 8.90417 13.5375 8.7125C13.3458 8.52083 13.25 8.28333 13.25 8Z" fill="#00797A"/>
</svg>
