<svg width="25" height="24" viewBox="0 0 25 24" fill="none" xmlns="http://www.w3.org/2000/svg">
<path d="M4.5 21C3.95 21 3.47917 20.8042 3.0875 20.4125C2.69583 20.0208 2.5 19.55 2.5 19V5C2.5 4.45 2.69583 3.97917 3.0875 3.5875C3.47917 3.19583 3.95 3 4.5 3H20.5C21.05 3 21.5208 3.19583 21.9125 3.5875C22.3042 3.97917 22.5 4.45 22.5 5V19C22.5 19.55 22.3042 20.0208 21.9125 20.4125C21.5208 20.8042 21.05 21 20.5 21H4.5ZM4.5 19H20.5V5H4.5V19ZM9.5 17C9.78333 17 10.0208 16.9042 10.2125 16.7125C10.4042 16.5208 10.5 16.2833 10.5 16C10.5 15.7167 10.4042 15.4792 10.2125 15.2875C10.0208 15.0958 9.78333 15 9.5 15H6.5C6.21667 15 5.97917 15.0958 5.7875 15.2875C5.59583 15.4792 5.5 15.7167 5.5 16C5.5 16.2833 5.59583 16.5208 5.7875 16.7125C5.97917 16.9042 6.21667 17 6.5 17H9.5ZM15.05 12.175L14.325 11.45C14.125 11.25 13.8917 11.1542 13.625 11.1625C13.3583 11.1708 13.125 11.275 12.925 11.475C12.7417 11.675 12.6458 11.9083 12.6375 12.175C12.6292 12.4417 12.725 12.675 12.925 12.875L14.35 14.3C14.55 14.5 14.7833 14.6 15.05 14.6C15.3167 14.6 15.55 14.5 15.75 14.3L19.3 10.75C19.5 10.55 19.6 10.3167 19.6 10.05C19.6 9.78333 19.5 9.55 19.3 9.35C19.1 9.15 18.8625 9.05 18.5875 9.05C18.3125 9.05 18.075 9.15 17.875 9.35L15.05 12.175ZM9.5 13C9.78333 13 10.0208 12.9042 10.2125 12.7125C10.4042 12.5208 10.5 12.2833 10.5 12C10.5 11.7167 10.4042 11.4792 10.2125 11.2875C10.0208 11.0958 9.78333 11 9.5 11H6.5C6.21667 11 5.97917 11.0958 5.7875 11.2875C5.59583 11.4792 5.5 11.7167 5.5 12C5.5 12.2833 5.59583 12.5208 5.7875 12.7125C5.97917 12.9042 6.21667 13 6.5 13H9.5ZM9.5 9C9.78333 9 10.0208 8.90417 10.2125 8.7125C10.4042 8.52083 10.5 8.28333 10.5 8C10.5 7.71667 10.4042 7.47917 10.2125 7.2875C10.0208 7.09583 9.78333 7 9.5 7H6.5C6.21667 7 5.97917 7.09583 5.7875 7.2875C5.59583 7.47917 5.5 7.71667 5.5 8C5.5 8.28333 5.59583 8.52083 5.7875 8.7125C5.97917 8.90417 6.21667 9 6.5 9H9.5Z" fill="#00797A"/>
</svg>
