<svg width="25" height="24" viewBox="0 0 25 24" fill="none" xmlns="http://www.w3.org/2000/svg">
<path d="M12.25 7.12495V14.925L15.4 16.85L14.575 13.25L17.35 10.85L13.7 10.525L12.25 7.12495ZM12.25 17.275L8.10002 19.775C7.91668 19.8916 7.72502 19.9416 7.52501 19.9249C7.32501 19.9083 7.15001 19.8416 7.00002 19.725C6.85001 19.6083 6.73335 19.4625 6.65002 19.2874C6.56668 19.1125 6.55002 18.9166 6.60002 18.7L7.70002 13.975L4.02502 10.8C3.85835 10.65 3.75418 10.4791 3.71252 10.2875C3.67085 10.0958 3.68335 9.90828 3.75002 9.72495C3.81668 9.54162 3.91668 9.39162 4.05002 9.27495C4.18335 9.15828 4.36668 9.08328 4.60002 9.04995L9.45002 8.62495L11.325 4.17495C11.4083 3.97495 11.5375 3.82495 11.7125 3.72495C11.8875 3.62495 12.0667 3.57495 12.25 3.57495C12.4333 3.57495 12.6125 3.62495 12.7875 3.72495C12.9625 3.82495 13.0917 3.97495 13.175 4.17495L15.05 8.62495L19.9 9.04995C20.1333 9.08328 20.3167 9.15828 20.45 9.27495C20.5833 9.39162 20.6833 9.54162 20.75 9.72495C20.8167 9.90828 20.8292 10.0958 20.7875 10.2875C20.7458 10.4791 20.6417 10.65 20.475 10.8L16.8 13.975L17.9 18.7C17.95 18.9166 17.9333 19.1125 17.85 19.2874C17.7667 19.4625 17.65 19.6083 17.5 19.725C17.35 19.8416 17.175 19.9083 16.975 19.9249C16.775 19.9416 16.5833 19.8916 16.4 19.775L12.25 17.275Z" fill="#00797A"/>
</svg>
