<svg width="25" height="24" viewBox="0 0 25 24" fill="none" xmlns="http://www.w3.org/2000/svg">
<path d="M14.5 21V19.35C14.5 19.2167 14.525 19.0875 14.575 18.9625C14.625 18.8375 14.7 18.725 14.8 18.625L20.025 13.425C20.175 13.275 20.3417 13.1667 20.525 13.1C20.7083 13.0333 20.8917 13 21.075 13C21.275 13 21.4667 13.0375 21.65 13.1125C21.8333 13.1875 22 13.3 22.15 13.45L23.075 14.375C23.2083 14.525 23.3125 14.6917 23.3875 14.875C23.4625 15.0583 23.5 15.2417 23.5 15.425C23.5 15.6083 23.4667 15.7958 23.4 15.9875C23.3333 16.1792 23.225 16.35 23.075 16.5L17.875 21.7C17.775 21.8 17.6625 21.875 17.5375 21.925C17.4125 21.975 17.2833 22 17.15 22H15.5C15.2167 22 14.9792 21.9042 14.7875 21.7125C14.5958 21.5208 14.5 21.2833 14.5 21ZM16 20.5H16.95L19.975 17.45L19.05 16.525L16 19.55V20.5ZM6.5 22C5.95 22 5.47917 21.8042 5.0875 21.4125C4.69583 21.0208 4.5 20.55 4.5 20V4C4.5 3.45 4.69583 2.97917 5.0875 2.5875C5.47917 2.19583 5.95 2 6.5 2H13.675C13.9417 2 14.1958 2.05 14.4375 2.15C14.6792 2.25 14.8917 2.39167 15.075 2.575L19.925 7.425C20.1083 7.60833 20.25 7.82083 20.35 8.0625C20.45 8.30417 20.5 8.55833 20.5 8.825V10.25C20.5 10.5333 20.4042 10.7708 20.2125 10.9625C20.0208 11.1542 19.7833 11.25 19.5 11.25C19.2167 11.25 18.9792 11.1542 18.7875 10.9625C18.5958 10.7708 18.5 10.5333 18.5 10.25V9H14.5C14.2167 9 13.9792 8.90417 13.7875 8.7125C13.5958 8.52083 13.5 8.28333 13.5 8V4H6.5V20H11.5C11.7833 20 12.0208 20.0958 12.2125 20.2875C12.4042 20.4792 12.5 20.7167 12.5 21C12.5 21.2833 12.4042 21.5208 12.2125 21.7125C12.0208 21.9042 11.7833 22 11.5 22H6.5ZM19.525 16.975L19.05 16.525L19.975 17.45L19.525 16.975Z" fill="#00797A"/>
</svg>
