<svg width="25" height="24" viewBox="0 0 25 24" fill="none" xmlns="http://www.w3.org/2000/svg">
<path d="M9.50001 9.00004V20H16.5V17C16.5 16.7167 16.5958 16.4792 16.7875 16.2875C16.9792 16.0959 17.2167 16 17.5 16H20.5V9.00004H9.50001ZM7.50001 20V8.97504C7.50001 8.42504 7.70001 7.95837 8.10001 7.57504C8.50001 7.19171 8.97501 7.00004 9.52501 7.00004H20.5C21.05 7.00004 21.5208 7.19587 21.9125 7.58754C22.3042 7.97921 22.5 8.45004 22.5 9.00004V16.175C22.5 16.4417 22.45 16.6959 22.35 16.9375C22.25 17.1792 22.1083 17.3917 21.925 17.575L18.075 21.425C17.8917 21.6084 17.6792 21.75 17.4375 21.85C17.1958 21.95 16.9417 22 16.675 22H9.50001C8.95001 22 8.47918 21.8042 8.08751 21.4125C7.69585 21.0209 7.50001 20.55 7.50001 20ZM2.52501 6.25004C2.42501 5.70004 2.53335 5.20421 2.85001 4.76254C3.16668 4.32087 3.60001 4.05004 4.15001 3.95004L15 2.02504C15.5333 1.92504 16.0167 2.03754 16.45 2.36254C16.8833 2.68754 17.1667 3.11671 17.3 3.65004L17.475 4.42504C17.5583 4.75837 17.5083 5.02504 17.325 5.22504C17.1417 5.42504 16.925 5.54171 16.675 5.57504C16.425 5.60837 16.1875 5.56254 15.9625 5.43754C15.7375 5.31254 15.5833 5.08337 15.5 4.75004L15.325 4.00004L4.50001 5.92504L6.00001 14.525C6.05001 14.8084 6.00001 15.0625 5.85001 15.2875C5.70001 15.5125 5.48335 15.65 5.20001 15.7C4.91668 15.75 4.66668 15.6959 4.45001 15.5375C4.23335 15.3792 4.10001 15.1584 4.05001 14.875L2.52501 6.25004Z" fill="#00797A"/>
</svg>
